<?xml version="1.0"?>
<svg xmlns="http://www.w3.org/2000/svg" height="512px" viewBox="-24 0 511 511.998" width="512px"><path d="m257.972656 207.011719c0 4.832031-4.539062 9.226562-10.25 9.226562-5.859375 0-10.398437-4.394531-10.398437-9.226562 0-4.980469 4.539062-9.226563 10.398437-9.226563 5.710938 0 10.25 4.246094 10.25 9.226563zm-.730468 30.605469v57.695312c0 2.929688-4.25 6.003906-9.519532 6.003906-5.417968 0-9.371094-3.074218-9.371094-6.003906v-57.695312c0-3.515626 3.953126-5.855469 9.371094-5.855469 5.269532-.003907 9.519532 2.339843 9.519532 5.855469zm0 0" fill="#ffcc00"/><path d="m396.976562 96.164062c-42.347656-42.351562-98.652343-65.671874-158.542968-65.671874-11.386719 0-22.789063.859374-33.992188 2.5625-4.476562-18.925782-21.515625-33.054688-41.792968-33.054688h-20.867188c-77.902344 0-141.28125 63.378906-141.28125 141.28125v168.203125c0 4.144531 3.359375 7.5 7.5 7.5s7.5-3.355469 7.5-7.5v-168.203125c0-64.367188 48.40625-117.640625 110.726562-125.328125v13.988281c0 4.144532 3.359376 7.5 7.5 7.5 4.140626 0 7.5-3.355468 7.5-7.5v-14.9375c.183594-.003906.371094-.003906.554688-.003906h20.867188c14.847656 0 27.027343 11.640625 27.890624 26.273438-.027343.472656-.011718.953124.050782 1.441406v.226562 63.292969c0 15.40625-12.535156 27.941406-27.941406 27.941406h-21.382813c-.011719 0-.027344 0-.039063 0v-69.496093c0-4.144532-3.359374-7.5-7.5-7.5-4.140624 0-7.5 3.355468-7.5 7.5v72.570312c-13.699218 5.859375-23.324218 19.472656-23.324218 35.292969v164.394531c0 15.816406 9.625 29.429688 23.324218 35.292969v121.292969c-62.320312-7.6875-110.726562-60.960938-110.726562-125.328126v-23.40625c0-4.140624-3.359375-7.5-7.5-7.5-4.144531 0-7.5 3.359376-7.5 7.5v23.40625c0 77.902344 63.378906 141.28125 141.28125 141.28125h20.867188c23.675781 0 42.941406-19.261718 42.941406-42.941406v-63.292968c0-23.675782-19.265625-42.941407-42.941406-42.941407h-21.382813c-12.882813 0-23.363281-10.480469-23.363281-23.363281v-164.394531c0-12.886719 10.480468-23.367188 23.363281-23.367188h21.382813c23.675781 0 42.941406-19.261719 42.941406-42.941406v-58.179687c10.8125-1.699219 21.832031-2.5625 32.84375-2.5625 115.359375 0 209.210937 93.851562 209.210937 209.210937 0 55.09375-21.210937 107.09375-59.726562 146.421875-34.203125 34.929688-78.660157 56.417969-126.695313 61.578125l31.730469-35.132813c2.777344-3.074218 2.539063-7.8125-.535156-10.589843-3.074219-2.777344-7.816407-2.535157-10.59375.535156l-44.070313 48.789063c-.003906.003906-.003906.003906-.007812.007812l-.019532.023438c-.007812.007812-.011718.015624-.019531.023437-.035156.039063-.074219.082031-.109375.121094-.007812.011719-.019531.027343-.027344.039062-.035156.039063-.066406.078125-.101562.121094-.007812.011719-.019531.023437-.027344.035156-.039062.046875-.078125.09375-.113281.140625-.003906.003906-.003906.007813-.007813.011719-.855468 1.125-1.402343 2.503906-1.507812 3.996094 0 .015625-.003906.03125-.003906.046875-.003906.046875-.003906.09375-.007813.140625 0 .027343 0 .054687-.003906.078125v.109375c-.003906.035156-.003906.070312-.003906.105469v.078124.128907.015625c0 .015625.003906.03125.003906.050781 0 .042969 0 .085937.003906.128906 0 .03125.003907.058594.003907.089844.003906.035156.003906.070313.007812.101563.117188 1.65625.765625 3.15625 1.777344 4.335937.007812.011719.019531.027344.03125.039063.03125.035156.0625.070312.09375.105468.015625.019532.03125.035156.046875.054688.027343.027344.054687.054687.082031.082031.019531.019531.039062.042969.058594.0625.023437.027344.046875.050781.070312.074219.023438.019531.042969.042968.066406.066406.027344.023438.054688.050781.082032.078125.023437.019531.042968.039063.0625.058594.042968.039062.085937.078125.128906.117187.019531.019532.039062.035156.058594.050782.03125.027343.0625.054687.09375.078124.019531.015626.039062.03125.054687.046876.035157.027343.066407.054687.101563.082031.015625.011719.03125.027343.050781.039062.039063.03125.078125.0625.117187.09375.011719.007813.023438.015625.03125.023438.253907.1875.523438.363281.800782.519531l56.726562 33.070312c1.1875.691407 2.488282 1.019532 3.773438 1.019532 2.578125 0 5.09375-1.332032 6.484375-3.722656 2.085937-3.578126.875-8.171876-2.703125-10.257813l-36.023438-21c49.554688-6.453125 95.296875-29.1875 130.757813-65.398437 41.277343-42.148438 64.011719-97.875 64.011719-156.914063-.003907-59.886719-23.324219-116.191406-65.671876-158.539063zm-255.75 279.136719h.042969 21.378907c15.40625 0 27.941406 12.535157 27.941406 27.941407v63.292968c0 15.40625-12.535156 27.941406-27.941406 27.941406h-20.867188c-.183594 0-.371094 0-.554688 0zm0 0" fill="#ffcc00"/><path d="m349.117188 254.738281c0-55.175781-44.886719-100.0625-100.0625-100.0625-55.175782 0-100.066407 44.886719-100.066407 100.0625s44.890625 100.066407 100.066407 100.066407c55.175781 0 100.0625-44.890626 100.0625-100.066407zm-185.128907 0c0-46.902343 38.160157-85.0625 85.066407-85.0625 46.902343 0 85.0625 38.160157 85.0625 85.0625 0 46.90625-38.160157 85.066407-85.0625 85.066407-46.90625 0-85.066407-38.160157-85.066407-85.066407zm0 0" fill="#ffcc00"/></svg>
