<?xml version="1.0" encoding="utf-8"?>
<!-- Generator: Adobe Illustrator 16.0.0, SVG Export Plug-In . SVG Version: 6.00 Build 0)  -->
<!DOCTYPE svg PUBLIC "-//W3C//DTD SVG 1.1//EN" "http://www.w3.org/Graphics/SVG/1.1/DTD/svg11.dtd">
<svg version="1.1" id="Layer_1" xmlns="http://www.w3.org/2000/svg" xmlns:xlink="http://www.w3.org/1999/xlink" x="0px" y="0px"
	 width="335.986px" height="235.19px" viewBox="0 0 335.986 235.19" enable-background="new 0 0 335.986 235.19"
	 xml:space="preserve">
<g>
	<g>
		<rect fill="#EAECF0" width="335.986" height="235.189"/>
	</g>
</g>
<g opacity="0.1">
	<g>
		<path fill="#053F5F" d="M208.215,172.828h-80.79c-1.126,0-2.039,0.912-2.039,2.039v45.262c0,1.127,0.913,2.039,2.039,2.039h80.79
			c1.125,0,2.038-0.912,2.038-2.039v-45.262C210.253,173.74,209.34,172.828,208.215,172.828z"/>
	</g>
	<g>
		<polygon fill="#053F5F" points="217.609,176.543 215.77,182.014 215.77,217.16 220.459,217.16 220.459,182.014 218.635,176.543 		
			"/>
	</g>
	<g>
		<path fill="#053F5F" d="M293.113,131.314l-2.274,2.607l-8.675-7.566c8.917-12.841,6.938-30.604-5.117-41.119
			c-8.531-7.439-19.974-9.388-30.015-6.144V60.837c0-3.392-2.737-6.141-6.114-6.141H104.211c-3.381,0-6.12,2.749-6.12,6.141v27.811
			c-8.47,0.424-11.646,5.579-14.132,11.228c-1.454-1.249-3.342-2-5.401-2c-4.621,0-8.363,3.771-8.363,8.424
			c0,0.49,0.043,0.969,0.126,1.438c-6.306,1.004-11.121,6.492-11.121,13.127c0,7.342,5.908,13.297,13.192,13.297h25.699v18.91
			H76.672v3.588v1.592v0.221v0.068v0.072c0.042,0.006,0.088,0.008,0.131,0.014c3.759,4.658,6.424,3.977,7.181,3.977l88.604-0.014
			l75.945,0.014h14.076c1.298-0.156,3.296-0.916,5.762-3.98c0.032-0.004,0.066-0.006,0.1-0.01v-0.072v-0.018v-0.271v-1.592v-3.588
			h-21.438v-14.842c10.431,3.373,22.196,1.049,30.585-6.658l8.674,7.564l-2.273,2.607l30.795,26.859l2.273-2.605l4.549-5.215
			l2.273-2.605L293.113,131.314z"/>
	</g>
	<g>
		<path fill="#053F5F" d="M69.562,71.747c10.961-7.854,13.481-23.106,5.628-34.067c-7.855-10.964-23.11-13.481-34.071-5.629
			c-10.962,7.855-13.481,23.109-5.626,34.072C43.346,77.082,58.6,79.604,69.562,71.747z"/>
	</g>
	<g>
		<circle fill="#053F5F" cx="295.645" cy="197.959" r="24.158"/>
	</g>
	<g>
		<circle fill="#053F5F" cx="49.178" cy="197.959" r="24.158"/>
	</g>
	<g>
		<circle fill="#053F5F" cx="292.596" cy="51.688" r="24.512"/>
	</g>
</g>
<g>
	<path fill="#FFFFFF" d="M205.819,217.545c0,1.127-0.913,2.039-2.038,2.039h-80.79c-1.126,0-2.039-0.912-2.039-2.039v-45.262
		c0-1.127,0.913-2.039,2.039-2.039h80.79c1.125,0,2.038,0.912,2.038,2.039V217.545z"/>
</g>
<g>
	<path fill="#62BFBE" d="M199.949,173.1h-56.013v42.68h56.013c1.125,0,2.039-0.912,2.039-2.039v-38.602
		C201.988,174.012,201.074,173.1,199.949,173.1z"/>
</g>
<g>
	<path fill="#053F5F" d="M127.617,173.1c-1.564,0-2.833,0.912-2.833,2.039v38.602c0,1.127,1.269,2.039,2.833,2.039h23.777V173.1
		H127.617z"/>
</g>
<g>
	<path fill="#FFFFFF" d="M216.025,214.811c0,0-0.237,1.348-2.345,1.348c-1.902,0-2.345-1.348-2.345-1.348v-5.432h4.689V214.811z"/>
</g>
<g>
	<path d="M213.949,174.969c0,0.186-0.117,0.338-0.262,0.338l0,0c-0.145,0-0.262-0.152-0.262-0.338v-1.912
		c0-0.188,0.117-0.338,0.262-0.338l0,0c0.145,0,0.262,0.15,0.262,0.338V174.969z"/>
</g>
<g>
	<rect x="211.336" y="179.432" fill="#053F5F" width="4.689" height="35.146"/>
</g>
<g>
	<polygon fill="#FFFFFF" points="211.336,179.432 213.176,173.959 214.201,173.961 216.025,179.432 	"/>
</g>
<g>
	<rect x="211.336" y="201.285" fill="#FFFFFF" width="4.689" height="6.666"/>
</g>
<g>
	<g>
		<g>
			<path fill="#053F5F" d="M72.239,154.074v1.592v0.223v0.068h0.06c3.798,4.758,6.491,4.061,7.252,4.061l88.604-0.014l75.945,0.014
				h14.076c1.311-0.156,3.333-0.922,5.831-4.061h0.03v-0.02v-0.271v-1.592H72.239z"/>
		</g>
	</g>
</g>
<g>
	<g>
		<rect x="146.84" y="69.3" fill="#5F772B" width="14.306" height="30.566"/>
	</g>
</g>
<g>
	<g>
		<g>
			<path fill="#053F5F" d="M242.599,150.566c0,3.375-2.737,6.125-6.114,6.125H99.778c-3.381,0-6.12-2.75-6.12-6.125V58.254
				c0-3.392,2.738-6.141,6.12-6.141h136.707c3.377,0,6.114,2.749,6.114,6.141V150.566z"/>
		</g>
	</g>
</g>
<g>
	<g>
		<g>
			<path fill="#053F5F" d="M72.239,150.486v5.541c0.711,0.1,1.452,0.152,2.24,0.152h187.309c0.789,0,1.537-0.053,2.25-0.152v-5.541
				H72.239z"/>
		</g>
	</g>
</g>
<g>
	<g>
		<g>
			<path fill="#FFFFFF" d="M152.033,150.486c-0.031,0.158-0.055,0.334-0.055,0.51c0,1.328,1.086,2.416,2.42,2.416h27.469
				c1.329,0,2.42-1.088,2.42-2.416c0-0.176-0.022-0.352-0.062-0.51H152.033z"/>
		</g>
	</g>
</g>
<g>
	<g>
		<g>
			<rect x="100.466" y="59.247" fill="#62BFBE" width="135.491" height="85.571"/>
		</g>
	</g>
</g>
<g>
	<path fill="#053F5F" d="M128.617,17.861l1.246,5.9h0.078c0.088-0.777,0.188-1.385,0.302-1.822l1.049-4.078h2.754l1.351,5.9h0.079
		c0.069-0.734,0.152-1.315,0.249-1.744l0.996-4.156h3.737l-3.488,9.887h-3.134l-1.127-5.376h-0.118l-0.014,0.171
		c-0.044,0.594-0.101,1.035-0.17,1.324l-0.997,3.881h-3.055l-3.462-9.887H128.617z"/>
	<path fill="#053F5F" d="M141.192,17.861h6.647v2.701h-3.028v0.944h2.767v2.569h-2.767v0.971h3.134v2.701h-6.753V17.861z"/>
	<path fill="#053F5F" d="M149.4,17.861h4.183c0.533,0,1.022,0.039,1.469,0.118c0.445,0.079,0.85,0.217,1.213,0.413
		c0.362,0.196,0.65,0.479,0.865,0.846c0.214,0.367,0.321,0.821,0.321,1.363c0,0.455-0.114,0.868-0.341,1.239
		c-0.228,0.372-0.547,0.623-0.958,0.754v0.079c0.56,0.192,0.992,0.487,1.299,0.885c0.306,0.398,0.459,0.885,0.459,1.462
		c0,0.49-0.104,0.909-0.309,1.259s-0.48,0.634-0.826,0.853c-0.345,0.219-0.732,0.376-1.16,0.472
		c-0.429,0.097-0.87,0.145-1.324,0.145H149.4V17.861z M153.059,21.664c0.341,0,0.611-0.046,0.812-0.138s0.302-0.291,0.302-0.597
		c0-0.288-0.097-0.474-0.288-0.558c-0.192-0.083-0.494-0.124-0.905-0.124h-0.249v1.416H153.059z M152.73,25.388h0.406
		c0.21,0,0.389-0.007,0.538-0.02c0.148-0.013,0.293-0.046,0.433-0.099c0.14-0.052,0.253-0.135,0.341-0.249
		c0.087-0.113,0.131-0.267,0.131-0.459s-0.044-0.345-0.131-0.459c-0.088-0.113-0.205-0.194-0.354-0.242
		c-0.148-0.048-0.301-0.079-0.459-0.092c-0.157-0.013-0.341-0.02-0.55-0.02h-0.354V25.388z"/>
	<path fill="#053F5F" d="M165.725,17.861h3.698l1.363,5.192h0.092l0.014-0.078c0.087-0.56,0.165-0.971,0.235-1.233l1.114-3.881
		h3.659l1.626,9.887h-3.476l-0.484-5.415H173.5l-0.013,0.052c-0.079,0.42-0.153,0.73-0.223,0.932l-1.43,4.432h-2.098l-1.285-4.183
		c-0.131-0.516-0.205-0.927-0.223-1.232h-0.118v0.065c-0.035,0.524-0.065,0.9-0.092,1.128l-0.42,4.222h-3.475L165.725,17.861z"/>
	<path fill="#053F5F" d="M178.68,17.861h6.647v2.701h-3.028v0.944h2.767v2.569h-2.767v0.971h3.134v2.701h-6.753V17.861z"/>
	<path fill="#053F5F" d="M186.939,17.861h3.658c0.857,0,1.64,0.097,2.348,0.289s1.324,0.493,1.849,0.904s0.933,0.942,1.226,1.593
		c0.293,0.651,0.439,1.419,0.439,2.302c0,0.726-0.12,1.386-0.36,1.979c-0.24,0.595-0.583,1.102-1.029,1.521
		c-0.446,0.419-0.975,0.74-1.587,0.964c-0.611,0.223-1.276,0.334-1.993,0.334h-4.55V17.861z M190.532,24.785h0.224
		c0.629,0,1.138-0.153,1.527-0.459c0.389-0.307,0.583-0.77,0.583-1.391c0-0.673-0.184-1.171-0.551-1.494s-0.887-0.485-1.56-0.485
		h-0.224V24.785z"/>
	<path fill="#053F5F" d="M197.783,17.861h3.593v9.887h-3.593V17.861z"/>
	<path fill="#053F5F" d="M205.952,27.748h-3.803l3.436-9.887h3.974l3.526,9.887h-3.802l-0.328-1.232h-2.714L205.952,27.748z
		 M208.326,24.168l-0.42-1.743c-0.062-0.263-0.136-0.669-0.223-1.22l-0.014-0.053h-0.131l-0.655,3.016H208.326z"/>
</g>
<g>
	<path fill="#053F5F" d="M115.083,38.911c-0.012,0.011-0.032,0.019-0.062,0.024c-0.029,0.008-0.071,0.015-0.126,0.022
		c-0.055,0.006-0.114,0.013-0.179,0.018c-0.063,0.005-0.129,0.009-0.195,0.012c-0.067,0.003-0.127,0.004-0.181,0.004
		c-0.13,0-0.252-0.011-0.363-0.032c-0.112-0.021-0.21-0.062-0.292-0.122c-0.083-0.06-0.148-0.143-0.196-0.25
		c-0.048-0.106-0.072-0.245-0.072-0.416v-2.104c0-0.021,0.008-0.04,0.024-0.056c0.016-0.016,0.034-0.024,0.056-0.024h0.396
		c0.021,0,0.04,0.008,0.056,0.024c0.016,0.016,0.024,0.035,0.024,0.056v2.104c0,0.133,0.022,0.224,0.067,0.272
		c0.046,0.048,0.127,0.072,0.244,0.072h0.736c0.021,0,0.04,0.008,0.056,0.024s0.024,0.035,0.024,0.056v0.256
		C115.102,38.88,115.095,38.9,115.083,38.911z"/>
	<path fill="#053F5F" d="M117.226,37.995c0,0.144-0.021,0.276-0.062,0.398c-0.041,0.121-0.102,0.226-0.182,0.314
		s-0.18,0.157-0.299,0.208c-0.118,0.051-0.256,0.076-0.413,0.076c-0.158,0-0.296-0.025-0.414-0.076
		c-0.119-0.051-0.219-0.12-0.299-0.208c-0.079-0.088-0.141-0.193-0.182-0.314c-0.041-0.122-0.062-0.254-0.062-0.398v-0.324
		c0-0.144,0.021-0.276,0.062-0.398c0.041-0.121,0.103-0.226,0.182-0.314c0.08-0.088,0.18-0.157,0.299-0.208
		c0.118-0.051,0.256-0.076,0.414-0.076c0.157,0,0.295,0.025,0.413,0.076c0.119,0.051,0.219,0.12,0.299,0.208
		s0.141,0.193,0.182,0.314c0.041,0.122,0.062,0.254,0.062,0.398V37.995z M116.698,37.671c0-0.165-0.036-0.296-0.108-0.394
		c-0.071-0.097-0.179-0.146-0.319-0.146c-0.142,0-0.248,0.049-0.32,0.146c-0.072,0.098-0.108,0.229-0.108,0.394v0.324
		c0,0.165,0.036,0.296,0.108,0.394c0.072,0.097,0.179,0.146,0.32,0.146c0.141,0,0.248-0.049,0.319-0.146
		c0.072-0.098,0.108-0.229,0.108-0.394V37.671z"/>
	<path fill="#053F5F" d="M118.814,37.099c-0.017,0.016-0.035,0.024-0.057,0.024c-0.109,0-0.207,0.013-0.294,0.038
		s-0.173,0.061-0.258,0.106v1.608c0,0.021-0.008,0.041-0.024,0.058c-0.016,0.017-0.034,0.026-0.056,0.026h-0.368
		c-0.021,0-0.04-0.009-0.056-0.026c-0.017-0.018-0.024-0.037-0.024-0.058v-2.092c0-0.021,0.008-0.04,0.024-0.056
		c0.016-0.016,0.034-0.024,0.056-0.024h0.349c0.021,0,0.039,0.008,0.056,0.024c0.016,0.016,0.023,0.035,0.023,0.056v0.084
		c0.099-0.078,0.199-0.129,0.301-0.154c0.101-0.025,0.191-0.038,0.271-0.038c0.021,0,0.04,0.008,0.057,0.024
		c0.016,0.016,0.023,0.035,0.023,0.056v0.288C118.838,37.064,118.83,37.083,118.814,37.099z"/>
	<path fill="#053F5F" d="M120.941,37.915c0,0.066-0.026,0.1-0.08,0.1h-1.304v0.012c0,0.059,0.007,0.118,0.021,0.178
		c0.013,0.06,0.038,0.115,0.073,0.164c0.036,0.049,0.086,0.089,0.148,0.12c0.062,0.031,0.142,0.046,0.238,0.046
		c0.146,0,0.284-0.005,0.414-0.014c0.129-0.009,0.236-0.018,0.321-0.026h0.013c0.021,0,0.038,0.004,0.052,0.014
		c0.014,0.01,0.02,0.025,0.02,0.046v0.264c0,0.032-0.004,0.056-0.014,0.072s-0.032,0.026-0.07,0.032
		c-0.063,0.014-0.124,0.024-0.18,0.032c-0.056,0.008-0.112,0.015-0.17,0.02s-0.12,0.009-0.188,0.012
		c-0.067,0.003-0.146,0.004-0.237,0.004c-0.102,0-0.209-0.016-0.322-0.046c-0.113-0.03-0.218-0.084-0.312-0.16
		c-0.096-0.076-0.174-0.179-0.236-0.308s-0.093-0.292-0.093-0.49v-0.296c0-0.155,0.021-0.294,0.063-0.42s0.104-0.232,0.186-0.32
		c0.081-0.088,0.182-0.156,0.302-0.204c0.119-0.048,0.255-0.072,0.407-0.072c0.154,0,0.29,0.025,0.409,0.074
		c0.118,0.049,0.217,0.119,0.297,0.21s0.141,0.198,0.182,0.322c0.041,0.124,0.062,0.261,0.062,0.41V37.915z M120.414,37.623
		c0-0.157-0.039-0.279-0.117-0.364c-0.077-0.085-0.18-0.128-0.305-0.128c-0.126,0-0.229,0.042-0.31,0.126
		c-0.081,0.084-0.121,0.206-0.121,0.366v0.016h0.853V37.623z"/>
	<path fill="#053F5F" d="M124.246,38.933c-0.017,0.017-0.035,0.026-0.057,0.026h-0.368c-0.021,0-0.04-0.009-0.056-0.026
		s-0.024-0.037-0.024-0.058v-1.357c0-0.077-0.004-0.14-0.014-0.189c-0.009-0.049-0.024-0.088-0.046-0.118s-0.051-0.05-0.088-0.062
		c-0.037-0.012-0.084-0.018-0.14-0.018c-0.038,0-0.091,0.007-0.16,0.022s-0.141,0.041-0.212,0.078
		c0.005,0.045,0.009,0.092,0.012,0.14s0.004,0.097,0.004,0.147v1.357c0,0.021-0.008,0.041-0.024,0.058
		c-0.016,0.017-0.034,0.026-0.056,0.026h-0.368c-0.021,0-0.04-0.009-0.056-0.026s-0.024-0.037-0.024-0.058v-1.357
		c0-0.077-0.004-0.14-0.012-0.189s-0.021-0.088-0.042-0.118c-0.02-0.029-0.048-0.05-0.084-0.062
		c-0.036-0.012-0.082-0.018-0.138-0.018c-0.083,0-0.206,0.044-0.368,0.132v1.612c0,0.021-0.008,0.041-0.024,0.058
		c-0.016,0.017-0.034,0.026-0.056,0.026h-0.368c-0.021,0-0.04-0.009-0.056-0.026c-0.017-0.018-0.024-0.037-0.024-0.058v-2.092
		c0-0.021,0.008-0.04,0.024-0.056c0.016-0.016,0.034-0.024,0.056-0.024h0.349c0.021,0,0.039,0.008,0.056,0.024
		c0.016,0.017,0.023,0.035,0.023,0.057v0.085c0.086-0.054,0.173-0.1,0.261-0.137s0.191-0.057,0.312-0.057
		c0.115,0,0.21,0.016,0.286,0.048c0.076,0.032,0.137,0.076,0.182,0.132c0.102-0.056,0.202-0.1,0.303-0.132
		c0.1-0.032,0.219-0.048,0.357-0.048c0.136,0,0.247,0.022,0.334,0.066c0.087,0.044,0.154,0.104,0.202,0.18
		c0.048,0.076,0.081,0.165,0.1,0.266c0.02,0.102,0.028,0.21,0.028,0.328v1.36C124.27,38.896,124.262,38.916,124.246,38.933z"/>
	<path fill="#053F5F" d="M126.286,36.323c0,0.021-0.008,0.04-0.023,0.056s-0.035,0.024-0.056,0.024h-0.389
		c-0.021,0-0.04-0.008-0.058-0.024s-0.026-0.035-0.026-0.056v-0.352c0-0.021,0.009-0.04,0.026-0.056s0.036-0.024,0.058-0.024h0.389
		c0.021,0,0.04,0.008,0.056,0.024s0.023,0.035,0.023,0.056V36.323z M126.274,38.875c0,0.021-0.008,0.041-0.023,0.058
		c-0.017,0.017-0.035,0.026-0.057,0.026h-0.368c-0.021,0-0.04-0.009-0.056-0.026c-0.016-0.018-0.023-0.037-0.023-0.058v-2.092
		c0-0.021,0.008-0.04,0.023-0.056s0.035-0.024,0.056-0.024h0.368c0.021,0,0.04,0.008,0.057,0.024
		c0.016,0.016,0.023,0.035,0.023,0.056V38.875z"/>
	<path fill="#053F5F" d="M128.675,37.987c0,0.315-0.079,0.561-0.236,0.738s-0.397,0.266-0.72,0.266
		c-0.048,0-0.105-0.002-0.172-0.006s-0.138-0.011-0.212-0.022v0.708c0,0.021-0.008,0.04-0.024,0.056
		c-0.016,0.016-0.034,0.024-0.056,0.024h-0.368c-0.021,0-0.04-0.008-0.056-0.024c-0.017-0.016-0.024-0.035-0.024-0.056v-2.784
		c0-0.029,0.007-0.052,0.021-0.066c0.013-0.015,0.042-0.028,0.088-0.042c0.125-0.032,0.259-0.057,0.399-0.076
		c0.142-0.019,0.276-0.028,0.404-0.028c0.322,0,0.562,0.089,0.72,0.266s0.236,0.423,0.236,0.738V37.987z M128.146,37.68
		c0-0.082-0.006-0.158-0.018-0.227s-0.034-0.128-0.066-0.179c-0.031-0.05-0.075-0.09-0.132-0.119
		c-0.056-0.029-0.127-0.044-0.212-0.044c-0.072,0-0.145,0.003-0.218,0.008s-0.129,0.012-0.166,0.02v1.389
		c0.056,0.008,0.122,0.014,0.198,0.02c0.075,0.005,0.138,0.008,0.186,0.008c0.085,0,0.156-0.015,0.212-0.044
		c0.057-0.029,0.101-0.069,0.132-0.119c0.032-0.051,0.055-0.11,0.066-0.179s0.018-0.145,0.018-0.227V37.68z"/>
	<path fill="#053F5F" d="M130.631,38.368c0,0.088-0.017,0.17-0.049,0.246c-0.031,0.076-0.08,0.142-0.146,0.198
		c-0.065,0.056-0.147,0.1-0.246,0.131c-0.099,0.032-0.213,0.048-0.344,0.048c-0.04,0-0.089-0.001-0.146-0.004
		c-0.057-0.002-0.119-0.007-0.186-0.014s-0.134-0.015-0.2-0.024s-0.128-0.022-0.184-0.039c-0.051-0.013-0.076-0.044-0.076-0.093
		v-0.242c0-0.016,0.006-0.031,0.018-0.044c0.013-0.013,0.029-0.02,0.05-0.02h0.017c0.048,0.006,0.104,0.011,0.17,0.016
		s0.13,0.01,0.194,0.014c0.063,0.004,0.124,0.007,0.18,0.01c0.056,0.003,0.099,0.004,0.128,0.004c0.062,0,0.11-0.005,0.147-0.014
		c0.038-0.009,0.066-0.022,0.087-0.04c0.02-0.017,0.033-0.038,0.04-0.062c0.006-0.024,0.01-0.049,0.01-0.076
		c0-0.037-0.014-0.07-0.04-0.1c-0.027-0.029-0.072-0.064-0.136-0.104l-0.549-0.335c-0.099-0.062-0.179-0.139-0.241-0.234
		c-0.063-0.094-0.095-0.2-0.095-0.317c0-0.399,0.254-0.599,0.761-0.599c0.079,0,0.152,0.002,0.218,0.006s0.126,0.01,0.182,0.018
		c0.057,0.008,0.109,0.017,0.16,0.026c0.051,0.009,0.102,0.02,0.152,0.03c0.048,0.013,0.071,0.044,0.071,0.093v0.234
		c0,0.051-0.021,0.077-0.063,0.077h-0.017c-0.029-0.003-0.069-0.007-0.119-0.014c-0.051-0.007-0.107-0.012-0.168-0.016
		c-0.062-0.004-0.125-0.008-0.19-0.012c-0.065-0.004-0.126-0.006-0.182-0.006c-0.097,0-0.166,0.013-0.21,0.038
		s-0.066,0.068-0.066,0.13c0,0.032,0.014,0.06,0.042,0.083s0.067,0.051,0.118,0.08l0.523,0.319c0.083,0.05,0.149,0.101,0.2,0.151
		c0.051,0.051,0.09,0.102,0.118,0.152c0.028,0.051,0.046,0.101,0.054,0.152C130.627,38.267,130.631,38.318,130.631,38.368z"/>
	<path fill="#053F5F" d="M132.895,38.935c-0.016,0.016-0.035,0.024-0.056,0.024h-0.368c-0.021,0-0.04-0.008-0.057-0.024
		c-0.016-0.016-0.023-0.034-0.023-0.055v-0.091c-0.104,0.069-0.203,0.119-0.296,0.151c-0.094,0.032-0.204,0.047-0.332,0.047
		c-0.102,0-0.194-0.013-0.278-0.04c-0.084-0.026-0.155-0.069-0.214-0.128c-0.074-0.075-0.127-0.172-0.156-0.294
		c-0.029-0.121-0.044-0.266-0.044-0.434v-1.304c0-0.021,0.008-0.041,0.024-0.058c0.016-0.017,0.034-0.026,0.056-0.026h0.368
		c0.021,0,0.04,0.009,0.056,0.026c0.017,0.018,0.024,0.037,0.024,0.058v1.307c0,0.102,0.006,0.183,0.018,0.243
		c0.013,0.06,0.037,0.108,0.074,0.143c0.029,0.024,0.062,0.042,0.101,0.054c0.037,0.012,0.086,0.018,0.147,0.018
		c0.037,0,0.077-0.005,0.118-0.016s0.082-0.024,0.122-0.041c0.04-0.016,0.078-0.033,0.114-0.052
		c0.035-0.019,0.068-0.036,0.098-0.052v-1.604c0-0.021,0.008-0.041,0.023-0.058c0.017-0.017,0.035-0.026,0.057-0.026h0.368
		c0.021,0,0.04,0.009,0.056,0.026c0.016,0.018,0.024,0.037,0.024,0.058v2.092C132.919,38.9,132.91,38.919,132.895,38.935z"/>
	<path fill="#053F5F" d="M136.287,38.933c-0.017,0.017-0.035,0.026-0.057,0.026h-0.368c-0.021,0-0.04-0.009-0.056-0.026
		s-0.024-0.037-0.024-0.058v-1.357c0-0.077-0.004-0.14-0.014-0.189c-0.009-0.049-0.024-0.088-0.046-0.118s-0.051-0.05-0.088-0.062
		c-0.037-0.012-0.084-0.018-0.14-0.018c-0.038,0-0.091,0.007-0.16,0.022s-0.141,0.041-0.212,0.078
		c0.005,0.045,0.009,0.092,0.012,0.14s0.004,0.097,0.004,0.147v1.357c0,0.021-0.008,0.041-0.024,0.058
		c-0.016,0.017-0.034,0.026-0.056,0.026h-0.368c-0.021,0-0.04-0.009-0.056-0.026s-0.024-0.037-0.024-0.058v-1.357
		c0-0.077-0.004-0.14-0.012-0.189s-0.021-0.088-0.042-0.118c-0.02-0.029-0.048-0.05-0.084-0.062
		c-0.036-0.012-0.082-0.018-0.138-0.018c-0.083,0-0.206,0.044-0.368,0.132v1.612c0,0.021-0.008,0.041-0.024,0.058
		c-0.016,0.017-0.034,0.026-0.056,0.026h-0.368c-0.021,0-0.04-0.009-0.056-0.026c-0.017-0.018-0.024-0.037-0.024-0.058v-2.092
		c0-0.021,0.008-0.04,0.024-0.056c0.016-0.016,0.034-0.024,0.056-0.024h0.349c0.021,0,0.039,0.008,0.056,0.024
		c0.016,0.017,0.023,0.035,0.023,0.057v0.085c0.086-0.054,0.173-0.1,0.261-0.137s0.191-0.057,0.312-0.057
		c0.115,0,0.21,0.016,0.286,0.048c0.076,0.032,0.137,0.076,0.182,0.132c0.102-0.056,0.202-0.1,0.303-0.132
		c0.1-0.032,0.219-0.048,0.357-0.048c0.136,0,0.247,0.022,0.334,0.066c0.087,0.044,0.154,0.104,0.202,0.18
		c0.048,0.076,0.081,0.165,0.1,0.266c0.02,0.102,0.028,0.21,0.028,0.328v1.36C136.311,38.896,136.303,38.916,136.287,38.933z"/>
	<path fill="#053F5F" d="M139.564,38.779c0,0.03-0.007,0.052-0.02,0.066c-0.014,0.015-0.043,0.028-0.088,0.042
		c-0.126,0.032-0.259,0.057-0.4,0.076s-0.276,0.028-0.404,0.028c-0.322,0-0.562-0.089-0.72-0.266s-0.236-0.423-0.236-0.738v-0.308
		c0-0.315,0.079-0.561,0.236-0.738s0.397-0.266,0.72-0.266c0.048,0,0.105,0.002,0.172,0.006c0.067,0.004,0.138,0.011,0.212,0.022
		v-0.708c0-0.021,0.009-0.04,0.024-0.056s0.035-0.024,0.056-0.024h0.368c0.021,0,0.04,0.008,0.057,0.024
		c0.016,0.016,0.023,0.035,0.023,0.056V38.779z M139.036,37.139c-0.056-0.008-0.121-0.014-0.197-0.02s-0.139-0.008-0.187-0.008
		c-0.085,0-0.155,0.015-0.212,0.044c-0.056,0.029-0.1,0.069-0.132,0.119c-0.032,0.051-0.054,0.11-0.066,0.179
		c-0.012,0.069-0.018,0.145-0.018,0.227v0.307c0,0.082,0.006,0.158,0.018,0.227c0.013,0.069,0.034,0.128,0.066,0.179
		c0.032,0.05,0.076,0.09,0.132,0.119c0.057,0.029,0.127,0.044,0.212,0.044c0.072,0,0.145-0.003,0.218-0.008
		c0.074-0.005,0.129-0.012,0.166-0.02V37.139z"/>
	<path fill="#053F5F" d="M141.928,37.995c0,0.144-0.021,0.276-0.062,0.398c-0.041,0.121-0.102,0.226-0.182,0.314
		s-0.18,0.157-0.299,0.208c-0.118,0.051-0.256,0.076-0.413,0.076c-0.158,0-0.296-0.025-0.414-0.076
		c-0.119-0.051-0.219-0.12-0.299-0.208c-0.079-0.088-0.141-0.193-0.182-0.314c-0.041-0.122-0.062-0.254-0.062-0.398v-0.324
		c0-0.144,0.021-0.276,0.062-0.398c0.041-0.121,0.103-0.226,0.182-0.314c0.08-0.088,0.18-0.157,0.299-0.208
		c0.118-0.051,0.256-0.076,0.414-0.076c0.157,0,0.295,0.025,0.413,0.076c0.119,0.051,0.219,0.12,0.299,0.208
		s0.141,0.193,0.182,0.314c0.041,0.122,0.062,0.254,0.062,0.398V37.995z M141.4,37.671c0-0.165-0.036-0.296-0.108-0.394
		c-0.071-0.097-0.179-0.146-0.319-0.146c-0.142,0-0.248,0.049-0.32,0.146c-0.072,0.098-0.108,0.229-0.108,0.394v0.324
		c0,0.165,0.036,0.296,0.108,0.394c0.072,0.097,0.179,0.146,0.32,0.146c0.141,0,0.248-0.049,0.319-0.146
		c0.072-0.098,0.108-0.229,0.108-0.394V37.671z"/>
	<path fill="#053F5F" d="M142.906,38.933c-0.015,0.017-0.033,0.026-0.054,0.026h-0.372c-0.021,0-0.04-0.009-0.057-0.026
		c-0.016-0.018-0.023-0.037-0.023-0.058v-2.88c0-0.021,0.008-0.04,0.023-0.056c0.017-0.016,0.035-0.024,0.057-0.024h0.372
		c0.021,0,0.039,0.008,0.054,0.024s0.021,0.035,0.021,0.056v2.88C142.928,38.896,142.921,38.916,142.906,38.933z"/>
	<path fill="#053F5F" d="M145.312,37.995c0,0.144-0.021,0.276-0.062,0.398c-0.041,0.121-0.102,0.226-0.182,0.314
		s-0.18,0.157-0.299,0.208c-0.118,0.051-0.256,0.076-0.413,0.076c-0.158,0-0.296-0.025-0.414-0.076
		c-0.119-0.051-0.219-0.12-0.299-0.208c-0.079-0.088-0.141-0.193-0.182-0.314c-0.041-0.122-0.062-0.254-0.062-0.398v-0.324
		c0-0.144,0.021-0.276,0.062-0.398c0.041-0.121,0.103-0.226,0.182-0.314c0.08-0.088,0.18-0.157,0.299-0.208
		c0.118-0.051,0.256-0.076,0.414-0.076c0.157,0,0.295,0.025,0.413,0.076c0.119,0.051,0.219,0.12,0.299,0.208
		s0.141,0.193,0.182,0.314c0.041,0.122,0.062,0.254,0.062,0.398V37.995z M144.784,37.671c0-0.165-0.036-0.296-0.108-0.394
		c-0.071-0.097-0.179-0.146-0.319-0.146c-0.142,0-0.248,0.049-0.32,0.146c-0.072,0.098-0.108,0.229-0.108,0.394v0.324
		c0,0.165,0.036,0.296,0.108,0.394c0.072,0.097,0.179,0.146,0.32,0.146c0.141,0,0.248-0.049,0.319-0.146
		c0.072-0.098,0.108-0.229,0.108-0.394V37.671z"/>
	<path fill="#053F5F" d="M146.9,37.099c-0.017,0.016-0.035,0.024-0.057,0.024c-0.109,0-0.207,0.013-0.294,0.038
		s-0.173,0.061-0.258,0.106v1.608c0,0.021-0.008,0.041-0.024,0.058c-0.016,0.017-0.034,0.026-0.056,0.026h-0.368
		c-0.021,0-0.04-0.009-0.056-0.026c-0.017-0.018-0.024-0.037-0.024-0.058v-2.092c0-0.021,0.008-0.04,0.024-0.056
		c0.016-0.016,0.034-0.024,0.056-0.024h0.349c0.021,0,0.039,0.008,0.056,0.024c0.016,0.016,0.023,0.035,0.023,0.056v0.084
		c0.099-0.078,0.199-0.129,0.301-0.154c0.101-0.025,0.191-0.038,0.271-0.038c0.021,0,0.04,0.008,0.057,0.024
		c0.016,0.016,0.023,0.035,0.023,0.056v0.288C146.924,37.064,146.916,37.083,146.9,37.099z"/>
	<path fill="#053F5F" d="M149.726,38.368c0,0.088-0.017,0.17-0.049,0.246c-0.031,0.076-0.08,0.142-0.146,0.198
		c-0.065,0.056-0.147,0.1-0.246,0.131c-0.099,0.032-0.213,0.048-0.344,0.048c-0.04,0-0.089-0.001-0.146-0.004
		c-0.057-0.002-0.119-0.007-0.186-0.014s-0.134-0.015-0.2-0.024s-0.128-0.022-0.184-0.039c-0.051-0.013-0.076-0.044-0.076-0.093
		v-0.242c0-0.016,0.006-0.031,0.018-0.044c0.013-0.013,0.029-0.02,0.05-0.02h0.017c0.048,0.006,0.104,0.011,0.17,0.016
		s0.13,0.01,0.194,0.014c0.063,0.004,0.124,0.007,0.18,0.01c0.056,0.003,0.099,0.004,0.128,0.004c0.062,0,0.11-0.005,0.147-0.014
		c0.038-0.009,0.066-0.022,0.087-0.04c0.02-0.017,0.033-0.038,0.04-0.062c0.006-0.024,0.01-0.049,0.01-0.076
		c0-0.037-0.014-0.07-0.04-0.1c-0.027-0.029-0.072-0.064-0.136-0.104l-0.549-0.335c-0.099-0.062-0.179-0.139-0.241-0.234
		c-0.063-0.094-0.095-0.2-0.095-0.317c0-0.399,0.254-0.599,0.761-0.599c0.079,0,0.152,0.002,0.218,0.006s0.126,0.01,0.182,0.018
		c0.057,0.008,0.109,0.017,0.16,0.026c0.051,0.009,0.102,0.02,0.152,0.03c0.048,0.013,0.071,0.044,0.071,0.093v0.234
		c0,0.051-0.021,0.077-0.063,0.077h-0.017c-0.029-0.003-0.069-0.007-0.119-0.014c-0.051-0.007-0.107-0.012-0.168-0.016
		c-0.062-0.004-0.125-0.008-0.19-0.012c-0.065-0.004-0.126-0.006-0.182-0.006c-0.097,0-0.166,0.013-0.21,0.038
		s-0.066,0.068-0.066,0.13c0,0.032,0.014,0.06,0.042,0.083s0.067,0.051,0.118,0.08l0.523,0.319c0.083,0.05,0.149,0.101,0.2,0.151
		c0.051,0.051,0.09,0.102,0.118,0.152c0.028,0.051,0.046,0.101,0.054,0.152C149.722,38.267,149.726,38.318,149.726,38.368z"/>
	<path fill="#053F5F" d="M150.717,36.323c0,0.021-0.008,0.04-0.023,0.056s-0.035,0.024-0.056,0.024h-0.389
		c-0.021,0-0.04-0.008-0.058-0.024s-0.026-0.035-0.026-0.056v-0.352c0-0.021,0.009-0.04,0.026-0.056s0.036-0.024,0.058-0.024h0.389
		c0.021,0,0.04,0.008,0.056,0.024s0.023,0.035,0.023,0.056V36.323z M150.705,38.875c0,0.021-0.008,0.041-0.023,0.058
		c-0.017,0.017-0.035,0.026-0.057,0.026h-0.368c-0.021,0-0.04-0.009-0.056-0.026c-0.016-0.018-0.023-0.037-0.023-0.058v-2.092
		c0-0.021,0.008-0.04,0.023-0.056s0.035-0.024,0.056-0.024h0.368c0.021,0,0.04,0.008,0.057,0.024
		c0.016,0.016,0.023,0.035,0.023,0.056V38.875z"/>
	<path fill="#053F5F" d="M152.418,38.963c-0.049,0.008-0.095,0.015-0.139,0.02s-0.089,0.008-0.134,0.008
		c-0.111,0-0.208-0.008-0.289-0.024c-0.08-0.016-0.146-0.046-0.196-0.092c-0.05-0.045-0.087-0.11-0.111-0.194
		c-0.023-0.084-0.035-0.193-0.035-0.326v-1.256l-0.376-0.056c-0.021-0.005-0.04-0.015-0.057-0.028
		c-0.016-0.014-0.023-0.031-0.023-0.052v-0.18c0-0.021,0.008-0.04,0.023-0.056c0.017-0.016,0.035-0.024,0.057-0.024h0.376v-0.328
		c0-0.021,0.008-0.039,0.023-0.052c0.017-0.013,0.034-0.022,0.056-0.028l0.369-0.064h0.017c0.042,0,0.063,0.02,0.063,0.06v0.412
		h0.359c0.021,0,0.04,0.008,0.057,0.024c0.016,0.016,0.023,0.035,0.023,0.056v0.236c0,0.021-0.008,0.04-0.023,0.056
		c-0.017,0.016-0.035,0.024-0.057,0.024h-0.359v1.256c0,0.051,0.001,0.091,0.004,0.12c0.002,0.029,0.009,0.052,0.02,0.068
		s0.026,0.026,0.046,0.03c0.021,0.004,0.049,0.006,0.086,0.006h0.212c0.057,0,0.084,0.02,0.084,0.06v0.252
		C152.493,38.931,152.468,38.955,152.418,38.963z"/>
	<path fill="#053F5F" d="M155.476,38.879c0,0.021-0.008,0.04-0.023,0.056c-0.017,0.016-0.035,0.024-0.057,0.024h-0.34
		c-0.021,0-0.04-0.008-0.056-0.024s-0.024-0.035-0.024-0.056v-0.064c-0.093,0.056-0.187,0.1-0.279,0.13
		c-0.094,0.031-0.188,0.046-0.284,0.046c-0.083,0-0.166-0.01-0.248-0.028c-0.083-0.019-0.157-0.053-0.222-0.104
		c-0.065-0.05-0.119-0.119-0.16-0.204c-0.042-0.085-0.062-0.196-0.062-0.332v-0.016c0-0.115,0.019-0.215,0.055-0.3
		c0.035-0.085,0.093-0.157,0.172-0.216c0.078-0.059,0.18-0.103,0.304-0.132s0.272-0.044,0.446-0.044h0.252v-0.177
		c0-0.132-0.029-0.219-0.086-0.262c-0.058-0.043-0.146-0.064-0.267-0.064c-0.128,0-0.252,0.003-0.372,0.01
		c-0.12,0.006-0.213,0.014-0.279,0.022h-0.021c-0.021,0-0.038-0.004-0.052-0.012c-0.014-0.008-0.021-0.026-0.021-0.056v-0.253
		c0-0.045,0.025-0.073,0.076-0.083c0.08-0.016,0.177-0.03,0.29-0.043s0.239-0.02,0.378-0.02c0.285,0,0.504,0.063,0.654,0.188
		c0.15,0.125,0.226,0.317,0.226,0.576V38.879z M154.948,37.967h-0.254c-0.091,0-0.165,0.007-0.223,0.022
		c-0.059,0.015-0.104,0.036-0.138,0.064c-0.033,0.028-0.056,0.063-0.068,0.106c-0.012,0.042-0.018,0.092-0.018,0.148v0.016
		c0,0.099,0.022,0.165,0.068,0.198s0.119,0.05,0.221,0.05c0.073,0,0.145-0.01,0.216-0.032s0.136-0.048,0.195-0.08V37.967z"/>
	<path fill="#053F5F" d="M158.845,38.933c-0.017,0.017-0.035,0.026-0.057,0.026h-0.368c-0.021,0-0.04-0.009-0.056-0.026
		s-0.024-0.037-0.024-0.058v-1.357c0-0.077-0.004-0.14-0.014-0.189c-0.009-0.049-0.024-0.088-0.046-0.118s-0.051-0.05-0.088-0.062
		c-0.037-0.012-0.084-0.018-0.14-0.018c-0.038,0-0.091,0.007-0.16,0.022s-0.141,0.041-0.212,0.078
		c0.005,0.045,0.009,0.092,0.012,0.14s0.004,0.097,0.004,0.147v1.357c0,0.021-0.008,0.041-0.024,0.058
		c-0.016,0.017-0.034,0.026-0.056,0.026h-0.368c-0.021,0-0.04-0.009-0.056-0.026s-0.024-0.037-0.024-0.058v-1.357
		c0-0.077-0.004-0.14-0.012-0.189s-0.021-0.088-0.042-0.118c-0.02-0.029-0.048-0.05-0.084-0.062
		c-0.036-0.012-0.082-0.018-0.138-0.018c-0.083,0-0.206,0.044-0.368,0.132v1.612c0,0.021-0.008,0.041-0.024,0.058
		c-0.016,0.017-0.034,0.026-0.056,0.026h-0.368c-0.021,0-0.04-0.009-0.056-0.026c-0.017-0.018-0.024-0.037-0.024-0.058v-2.092
		c0-0.021,0.008-0.04,0.024-0.056c0.016-0.016,0.034-0.024,0.056-0.024h0.349c0.021,0,0.039,0.008,0.056,0.024
		c0.016,0.017,0.023,0.035,0.023,0.057v0.085c0.086-0.054,0.173-0.1,0.261-0.137s0.191-0.057,0.312-0.057
		c0.115,0,0.21,0.016,0.286,0.048c0.076,0.032,0.137,0.076,0.182,0.132c0.102-0.056,0.202-0.1,0.303-0.132
		c0.1-0.032,0.219-0.048,0.357-0.048c0.136,0,0.247,0.022,0.334,0.066c0.087,0.044,0.154,0.104,0.202,0.18
		c0.048,0.076,0.081,0.165,0.1,0.266c0.02,0.102,0.028,0.21,0.028,0.328v1.36C158.868,38.896,158.86,38.916,158.845,38.933z"/>
	<path fill="#053F5F" d="M161.228,37.915c0,0.066-0.026,0.1-0.08,0.1h-1.304v0.012c0,0.059,0.007,0.118,0.021,0.178
		c0.013,0.06,0.038,0.115,0.073,0.164c0.036,0.049,0.086,0.089,0.148,0.12c0.062,0.031,0.142,0.046,0.238,0.046
		c0.146,0,0.284-0.005,0.414-0.014c0.129-0.009,0.236-0.018,0.321-0.026h0.013c0.021,0,0.038,0.004,0.052,0.014
		c0.014,0.01,0.02,0.025,0.02,0.046v0.264c0,0.032-0.004,0.056-0.014,0.072s-0.032,0.026-0.07,0.032
		c-0.063,0.014-0.124,0.024-0.18,0.032c-0.056,0.008-0.112,0.015-0.17,0.02s-0.12,0.009-0.188,0.012
		c-0.067,0.003-0.146,0.004-0.237,0.004c-0.102,0-0.209-0.016-0.322-0.046c-0.113-0.03-0.218-0.084-0.312-0.16
		c-0.096-0.076-0.174-0.179-0.236-0.308s-0.093-0.292-0.093-0.49v-0.296c0-0.155,0.021-0.294,0.063-0.42s0.104-0.232,0.186-0.32
		c0.081-0.088,0.182-0.156,0.302-0.204c0.119-0.048,0.255-0.072,0.407-0.072c0.154,0,0.29,0.025,0.409,0.074
		c0.118,0.049,0.217,0.119,0.297,0.21s0.141,0.198,0.182,0.322c0.041,0.124,0.062,0.261,0.062,0.41V37.915z M160.7,37.623
		c0-0.157-0.039-0.279-0.117-0.364c-0.077-0.085-0.18-0.128-0.305-0.128c-0.126,0-0.229,0.042-0.31,0.126
		c-0.081,0.084-0.121,0.206-0.121,0.366v0.016h0.853V37.623z"/>
	<path fill="#053F5F" d="M162.784,38.963c-0.049,0.008-0.095,0.015-0.139,0.02s-0.089,0.008-0.134,0.008
		c-0.111,0-0.208-0.008-0.289-0.024c-0.08-0.016-0.146-0.046-0.196-0.092c-0.05-0.045-0.087-0.11-0.111-0.194
		c-0.023-0.084-0.035-0.193-0.035-0.326v-1.256l-0.376-0.056c-0.021-0.005-0.04-0.015-0.057-0.028
		c-0.016-0.014-0.023-0.031-0.023-0.052v-0.18c0-0.021,0.008-0.04,0.023-0.056c0.017-0.016,0.035-0.024,0.057-0.024h0.376v-0.328
		c0-0.021,0.008-0.039,0.023-0.052c0.017-0.013,0.034-0.022,0.056-0.028l0.369-0.064h0.017c0.042,0,0.063,0.02,0.063,0.06v0.412
		h0.359c0.021,0,0.04,0.008,0.057,0.024c0.016,0.016,0.023,0.035,0.023,0.056v0.236c0,0.021-0.008,0.04-0.023,0.056
		c-0.017,0.016-0.035,0.024-0.057,0.024h-0.359v1.256c0,0.051,0.001,0.091,0.004,0.12c0.002,0.029,0.009,0.052,0.02,0.068
		s0.026,0.026,0.046,0.03c0.021,0.004,0.049,0.006,0.086,0.006h0.212c0.057,0,0.084,0.02,0.084,0.06v0.252
		C162.859,38.931,162.834,38.955,162.784,38.963z"/>
	<path fill="#053F5F" d="M163.775,38.399c0,0.003-0.002,0.012-0.008,0.028l-0.348,0.84c-0.011,0.024-0.021,0.043-0.03,0.058
		c-0.009,0.015-0.024,0.022-0.046,0.022h-0.276c-0.039,0-0.06-0.019-0.06-0.056c0-0.011,0.001-0.019,0.004-0.024l0.244-0.84
		c0.016-0.05,0.043-0.076,0.08-0.076h0.384C163.757,38.351,163.775,38.367,163.775,38.399z"/>
	<path fill="#053F5F" d="M166.621,38.905c-0.011,0.015-0.033,0.026-0.067,0.034c-0.046,0.013-0.112,0.025-0.2,0.036
		s-0.193,0.016-0.316,0.016c-0.131,0-0.251-0.02-0.361-0.06c-0.111-0.04-0.207-0.101-0.288-0.182
		c-0.082-0.082-0.146-0.183-0.192-0.304c-0.047-0.121-0.07-0.263-0.07-0.426v-0.372c0-0.163,0.023-0.305,0.07-0.426
		c0.047-0.122,0.11-0.223,0.192-0.304c0.081-0.082,0.177-0.142,0.288-0.182c0.11-0.04,0.23-0.06,0.361-0.06
		c0.123,0,0.229,0.005,0.316,0.016s0.154,0.023,0.2,0.036c0.034,0.008,0.057,0.02,0.067,0.034c0.011,0.015,0.017,0.038,0.017,0.07
		v0.26c0,0.021-0.007,0.037-0.021,0.046c-0.014,0.009-0.03,0.014-0.052,0.014h-0.012c-0.04-0.005-0.078-0.01-0.112-0.014
		c-0.035-0.004-0.07-0.007-0.108-0.008c-0.037-0.001-0.08-0.002-0.128-0.004s-0.104-0.002-0.168-0.002
		c-0.048,0-0.095,0.008-0.14,0.024c-0.046,0.016-0.086,0.043-0.122,0.082s-0.065,0.092-0.088,0.16
		c-0.022,0.068-0.034,0.154-0.034,0.258v0.372c0,0.104,0.012,0.19,0.034,0.258c0.022,0.068,0.052,0.122,0.088,0.16
		s0.076,0.066,0.122,0.082c0.045,0.016,0.092,0.024,0.14,0.024c0.064,0,0.12,0,0.168-0.002s0.091-0.002,0.128-0.004
		c0.038-0.001,0.073-0.004,0.108-0.008c0.034-0.004,0.072-0.008,0.112-0.014h0.012c0.021,0,0.038,0.004,0.052,0.014
		c0.014,0.01,0.021,0.025,0.021,0.046v0.26C166.638,38.867,166.632,38.89,166.621,38.905z"/>
	<path fill="#053F5F" d="M168.86,37.995c0,0.144-0.021,0.276-0.062,0.398c-0.041,0.121-0.102,0.226-0.182,0.314
		s-0.18,0.157-0.299,0.208c-0.118,0.051-0.256,0.076-0.413,0.076c-0.158,0-0.296-0.025-0.414-0.076
		c-0.119-0.051-0.219-0.12-0.299-0.208c-0.079-0.088-0.141-0.193-0.182-0.314c-0.041-0.122-0.062-0.254-0.062-0.398v-0.324
		c0-0.144,0.021-0.276,0.062-0.398c0.041-0.121,0.103-0.226,0.182-0.314c0.08-0.088,0.18-0.157,0.299-0.208
		c0.118-0.051,0.256-0.076,0.414-0.076c0.157,0,0.295,0.025,0.413,0.076c0.119,0.051,0.219,0.12,0.299,0.208
		s0.141,0.193,0.182,0.314c0.041,0.122,0.062,0.254,0.062,0.398V37.995z M168.333,37.671c0-0.165-0.036-0.296-0.108-0.394
		c-0.071-0.097-0.179-0.146-0.319-0.146c-0.142,0-0.248,0.049-0.32,0.146c-0.072,0.098-0.108,0.229-0.108,0.394v0.324
		c0,0.165,0.036,0.296,0.108,0.394c0.072,0.097,0.179,0.146,0.32,0.146c0.141,0,0.248-0.049,0.319-0.146
		c0.072-0.098,0.108-0.229,0.108-0.394V37.671z"/>
	<path fill="#053F5F" d="M171.137,38.933c-0.016,0.017-0.035,0.026-0.056,0.026h-0.368c-0.021,0-0.04-0.009-0.057-0.026
		c-0.016-0.018-0.023-0.037-0.023-0.058v-1.304c0-0.088-0.004-0.161-0.01-0.218c-0.007-0.057-0.021-0.103-0.044-0.136
		c-0.023-0.033-0.057-0.057-0.103-0.072c-0.045-0.015-0.106-0.022-0.184-0.022c-0.069,0-0.141,0.013-0.214,0.038
		c-0.074,0.025-0.153,0.061-0.238,0.106v1.608c0,0.021-0.008,0.041-0.024,0.058c-0.016,0.017-0.034,0.026-0.056,0.026h-0.368
		c-0.021,0-0.04-0.009-0.056-0.026c-0.017-0.018-0.024-0.037-0.024-0.058v-2.092c0-0.021,0.008-0.04,0.024-0.056
		c0.016-0.016,0.034-0.024,0.056-0.024h0.349c0.021,0,0.039,0.008,0.056,0.024c0.016,0.016,0.023,0.035,0.023,0.056v0.084
		c0.059-0.038,0.113-0.068,0.162-0.092c0.05-0.024,0.1-0.043,0.15-0.058s0.103-0.025,0.156-0.032c0.053-0.007,0.113-0.01,0.18-0.01
		c0.144,0,0.262,0.023,0.352,0.068c0.091,0.045,0.161,0.108,0.21,0.188c0.05,0.08,0.084,0.174,0.103,0.284s0.028,0.228,0.028,0.356
		v1.304C171.161,38.896,171.152,38.916,171.137,38.933z"/>
	<path fill="#053F5F" d="M173.197,38.368c0,0.088-0.017,0.17-0.049,0.246c-0.031,0.076-0.08,0.142-0.146,0.198
		c-0.065,0.056-0.147,0.1-0.246,0.131c-0.099,0.032-0.213,0.048-0.344,0.048c-0.04,0-0.089-0.001-0.146-0.004
		c-0.057-0.002-0.119-0.007-0.186-0.014s-0.134-0.015-0.2-0.024s-0.128-0.022-0.184-0.039c-0.051-0.013-0.076-0.044-0.076-0.093
		v-0.242c0-0.016,0.006-0.031,0.018-0.044c0.013-0.013,0.029-0.02,0.05-0.02h0.017c0.048,0.006,0.104,0.011,0.17,0.016
		s0.13,0.01,0.194,0.014c0.063,0.004,0.124,0.007,0.18,0.01c0.056,0.003,0.099,0.004,0.128,0.004c0.062,0,0.11-0.005,0.147-0.014
		c0.038-0.009,0.066-0.022,0.087-0.04c0.02-0.017,0.033-0.038,0.04-0.062c0.006-0.024,0.01-0.049,0.01-0.076
		c0-0.037-0.014-0.07-0.04-0.1c-0.027-0.029-0.072-0.064-0.136-0.104l-0.549-0.335c-0.099-0.062-0.179-0.139-0.241-0.234
		c-0.063-0.094-0.095-0.2-0.095-0.317c0-0.399,0.254-0.599,0.761-0.599c0.079,0,0.152,0.002,0.218,0.006s0.126,0.01,0.182,0.018
		c0.057,0.008,0.109,0.017,0.16,0.026c0.051,0.009,0.102,0.02,0.152,0.03c0.048,0.013,0.071,0.044,0.071,0.093v0.234
		c0,0.051-0.021,0.077-0.063,0.077h-0.017c-0.029-0.003-0.069-0.007-0.119-0.014c-0.051-0.007-0.107-0.012-0.168-0.016
		c-0.062-0.004-0.125-0.008-0.19-0.012c-0.065-0.004-0.126-0.006-0.182-0.006c-0.097,0-0.166,0.013-0.21,0.038
		s-0.066,0.068-0.066,0.13c0,0.032,0.014,0.06,0.042,0.083s0.067,0.051,0.118,0.08l0.523,0.319c0.083,0.05,0.149,0.101,0.2,0.151
		c0.051,0.051,0.09,0.102,0.118,0.152c0.028,0.051,0.046,0.101,0.054,0.152C173.193,38.267,173.197,38.318,173.197,38.368z"/>
	<path fill="#053F5F" d="M175.477,37.915c0,0.066-0.026,0.1-0.08,0.1h-1.304v0.012c0,0.059,0.007,0.118,0.021,0.178
		c0.013,0.06,0.038,0.115,0.073,0.164c0.036,0.049,0.086,0.089,0.148,0.12c0.062,0.031,0.142,0.046,0.238,0.046
		c0.146,0,0.284-0.005,0.414-0.014c0.129-0.009,0.236-0.018,0.321-0.026h0.013c0.021,0,0.038,0.004,0.052,0.014
		c0.014,0.01,0.02,0.025,0.02,0.046v0.264c0,0.032-0.004,0.056-0.014,0.072s-0.032,0.026-0.07,0.032
		c-0.063,0.014-0.124,0.024-0.18,0.032c-0.056,0.008-0.112,0.015-0.17,0.02s-0.12,0.009-0.188,0.012
		c-0.067,0.003-0.146,0.004-0.237,0.004c-0.102,0-0.209-0.016-0.322-0.046c-0.113-0.03-0.218-0.084-0.312-0.16
		c-0.096-0.076-0.174-0.179-0.236-0.308s-0.093-0.292-0.093-0.49v-0.296c0-0.155,0.021-0.294,0.063-0.42s0.104-0.232,0.186-0.32
		c0.081-0.088,0.182-0.156,0.302-0.204c0.119-0.048,0.255-0.072,0.407-0.072c0.154,0,0.29,0.025,0.409,0.074
		c0.118,0.049,0.217,0.119,0.297,0.21s0.141,0.198,0.182,0.322c0.041,0.124,0.062,0.261,0.062,0.41V37.915z M174.949,37.623
		c0-0.157-0.039-0.279-0.117-0.364c-0.077-0.085-0.18-0.128-0.305-0.128c-0.126,0-0.229,0.042-0.31,0.126
		c-0.081,0.084-0.121,0.206-0.121,0.366v0.016h0.853V37.623z"/>
	<path fill="#053F5F" d="M177.349,38.905c-0.011,0.015-0.033,0.026-0.067,0.034c-0.046,0.013-0.112,0.025-0.2,0.036
		s-0.193,0.016-0.316,0.016c-0.131,0-0.251-0.02-0.361-0.06c-0.111-0.04-0.207-0.101-0.288-0.182
		c-0.082-0.082-0.146-0.183-0.192-0.304c-0.047-0.121-0.07-0.263-0.07-0.426v-0.372c0-0.163,0.023-0.305,0.07-0.426
		c0.047-0.122,0.11-0.223,0.192-0.304c0.081-0.082,0.177-0.142,0.288-0.182c0.11-0.04,0.23-0.06,0.361-0.06
		c0.123,0,0.229,0.005,0.316,0.016s0.154,0.023,0.2,0.036c0.034,0.008,0.057,0.02,0.067,0.034c0.011,0.015,0.017,0.038,0.017,0.07
		v0.26c0,0.021-0.007,0.037-0.021,0.046c-0.014,0.009-0.03,0.014-0.052,0.014h-0.012c-0.04-0.005-0.078-0.01-0.112-0.014
		c-0.035-0.004-0.07-0.007-0.108-0.008c-0.037-0.001-0.08-0.002-0.128-0.004s-0.104-0.002-0.168-0.002
		c-0.048,0-0.095,0.008-0.14,0.024c-0.046,0.016-0.086,0.043-0.122,0.082s-0.065,0.092-0.088,0.16
		c-0.022,0.068-0.034,0.154-0.034,0.258v0.372c0,0.104,0.012,0.19,0.034,0.258c0.022,0.068,0.052,0.122,0.088,0.16
		s0.076,0.066,0.122,0.082c0.045,0.016,0.092,0.024,0.14,0.024c0.064,0,0.12,0,0.168-0.002s0.091-0.002,0.128-0.004
		c0.038-0.001,0.073-0.004,0.108-0.008c0.034-0.004,0.072-0.008,0.112-0.014h0.012c0.021,0,0.038,0.004,0.052,0.014
		c0.014,0.01,0.021,0.025,0.021,0.046v0.26C177.365,38.867,177.359,38.89,177.349,38.905z"/>
	<path fill="#053F5F" d="M178.985,38.963c-0.049,0.008-0.095,0.015-0.139,0.02s-0.089,0.008-0.134,0.008
		c-0.111,0-0.208-0.008-0.289-0.024c-0.08-0.016-0.146-0.046-0.196-0.092c-0.05-0.045-0.087-0.11-0.111-0.194
		c-0.023-0.084-0.035-0.193-0.035-0.326v-1.256l-0.376-0.056c-0.021-0.005-0.04-0.015-0.057-0.028
		c-0.016-0.014-0.023-0.031-0.023-0.052v-0.18c0-0.021,0.008-0.04,0.023-0.056c0.017-0.016,0.035-0.024,0.057-0.024h0.376v-0.328
		c0-0.021,0.008-0.039,0.023-0.052c0.017-0.013,0.034-0.022,0.056-0.028l0.369-0.064h0.017c0.042,0,0.063,0.02,0.063,0.06v0.412
		h0.359c0.021,0,0.04,0.008,0.057,0.024c0.016,0.016,0.023,0.035,0.023,0.056v0.236c0,0.021-0.008,0.04-0.023,0.056
		c-0.017,0.016-0.035,0.024-0.057,0.024h-0.359v1.256c0,0.051,0.001,0.091,0.004,0.12c0.002,0.029,0.009,0.052,0.02,0.068
		s0.026,0.026,0.046,0.03c0.021,0.004,0.049,0.006,0.086,0.006h0.212c0.057,0,0.084,0.02,0.084,0.06v0.252
		C179.061,38.931,179.035,38.955,178.985,38.963z"/>
	<path fill="#053F5F" d="M181.265,37.915c0,0.066-0.026,0.1-0.08,0.1h-1.304v0.012c0,0.059,0.007,0.118,0.021,0.178
		c0.013,0.06,0.038,0.115,0.073,0.164c0.036,0.049,0.086,0.089,0.148,0.12c0.062,0.031,0.142,0.046,0.238,0.046
		c0.146,0,0.284-0.005,0.414-0.014c0.129-0.009,0.236-0.018,0.321-0.026h0.013c0.021,0,0.038,0.004,0.052,0.014
		c0.014,0.01,0.02,0.025,0.02,0.046v0.264c0,0.032-0.004,0.056-0.014,0.072s-0.032,0.026-0.07,0.032
		c-0.063,0.014-0.124,0.024-0.18,0.032c-0.056,0.008-0.112,0.015-0.17,0.02s-0.12,0.009-0.188,0.012
		c-0.067,0.003-0.146,0.004-0.237,0.004c-0.102,0-0.209-0.016-0.322-0.046c-0.113-0.03-0.218-0.084-0.312-0.16
		c-0.096-0.076-0.174-0.179-0.236-0.308s-0.093-0.292-0.093-0.49v-0.296c0-0.155,0.021-0.294,0.063-0.42s0.104-0.232,0.186-0.32
		c0.081-0.088,0.182-0.156,0.302-0.204c0.119-0.048,0.255-0.072,0.407-0.072c0.154,0,0.29,0.025,0.409,0.074
		c0.118,0.049,0.217,0.119,0.297,0.21s0.141,0.198,0.182,0.322c0.041,0.124,0.062,0.261,0.062,0.41V37.915z M180.737,37.623
		c0-0.157-0.039-0.279-0.117-0.364c-0.077-0.085-0.18-0.128-0.305-0.128c-0.126,0-0.229,0.042-0.31,0.126
		c-0.081,0.084-0.121,0.206-0.121,0.366v0.016h0.853V37.623z"/>
	<path fill="#053F5F" d="M182.822,38.963c-0.049,0.008-0.095,0.015-0.139,0.02s-0.089,0.008-0.134,0.008
		c-0.111,0-0.208-0.008-0.289-0.024c-0.08-0.016-0.146-0.046-0.196-0.092c-0.05-0.045-0.087-0.11-0.111-0.194
		c-0.023-0.084-0.035-0.193-0.035-0.326v-1.256l-0.376-0.056c-0.021-0.005-0.04-0.015-0.057-0.028
		c-0.016-0.014-0.023-0.031-0.023-0.052v-0.18c0-0.021,0.008-0.04,0.023-0.056c0.017-0.016,0.035-0.024,0.057-0.024h0.376v-0.328
		c0-0.021,0.008-0.039,0.023-0.052c0.017-0.013,0.034-0.022,0.056-0.028l0.369-0.064h0.017c0.042,0,0.063,0.02,0.063,0.06v0.412
		h0.359c0.021,0,0.04,0.008,0.057,0.024c0.016,0.016,0.023,0.035,0.023,0.056v0.236c0,0.021-0.008,0.04-0.023,0.056
		c-0.017,0.016-0.035,0.024-0.057,0.024h-0.359v1.256c0,0.051,0.001,0.091,0.004,0.12c0.002,0.029,0.009,0.052,0.02,0.068
		s0.026,0.026,0.046,0.03c0.021,0.004,0.049,0.006,0.086,0.006h0.212c0.057,0,0.084,0.02,0.084,0.06v0.252
		C182.897,38.931,182.872,38.955,182.822,38.963z"/>
	<path fill="#053F5F" d="M185.086,38.935c-0.016,0.016-0.035,0.024-0.056,0.024h-0.368c-0.021,0-0.04-0.008-0.057-0.024
		c-0.016-0.016-0.023-0.034-0.023-0.055v-0.091c-0.104,0.069-0.203,0.119-0.296,0.151c-0.094,0.032-0.204,0.047-0.332,0.047
		c-0.102,0-0.194-0.013-0.278-0.04c-0.084-0.026-0.155-0.069-0.214-0.128c-0.074-0.075-0.127-0.172-0.156-0.294
		c-0.029-0.121-0.044-0.266-0.044-0.434v-1.304c0-0.021,0.008-0.041,0.024-0.058c0.016-0.017,0.034-0.026,0.056-0.026h0.368
		c0.021,0,0.04,0.009,0.056,0.026c0.017,0.018,0.024,0.037,0.024,0.058v1.307c0,0.102,0.006,0.183,0.018,0.243
		c0.013,0.06,0.037,0.108,0.074,0.143c0.029,0.024,0.062,0.042,0.101,0.054c0.037,0.012,0.086,0.018,0.147,0.018
		c0.037,0,0.077-0.005,0.118-0.016s0.082-0.024,0.122-0.041c0.04-0.016,0.078-0.033,0.114-0.052
		c0.035-0.019,0.068-0.036,0.098-0.052v-1.604c0-0.021,0.008-0.041,0.023-0.058c0.017-0.017,0.035-0.026,0.057-0.026h0.368
		c0.021,0,0.04,0.009,0.056,0.026c0.016,0.018,0.024,0.037,0.024,0.058v2.092C185.11,38.9,185.102,38.919,185.086,38.935z"/>
	<path fill="#053F5F" d="M186.767,37.099c-0.017,0.016-0.035,0.024-0.057,0.024c-0.109,0-0.207,0.013-0.294,0.038
		s-0.173,0.061-0.258,0.106v1.608c0,0.021-0.008,0.041-0.024,0.058c-0.016,0.017-0.034,0.026-0.056,0.026h-0.368
		c-0.021,0-0.04-0.009-0.056-0.026c-0.017-0.018-0.024-0.037-0.024-0.058v-2.092c0-0.021,0.008-0.04,0.024-0.056
		c0.016-0.016,0.034-0.024,0.056-0.024h0.349c0.021,0,0.039,0.008,0.056,0.024c0.016,0.016,0.023,0.035,0.023,0.056v0.084
		c0.099-0.078,0.199-0.129,0.301-0.154c0.101-0.025,0.191-0.038,0.271-0.038c0.021,0,0.04,0.008,0.057,0.024
		c0.016,0.016,0.023,0.035,0.023,0.056v0.288C186.79,37.064,186.782,37.083,186.767,37.099z"/>
	<path fill="#053F5F" d="M189.747,38.879c0,0.021-0.008,0.04-0.023,0.056c-0.017,0.016-0.035,0.024-0.057,0.024h-0.34
		c-0.021,0-0.04-0.008-0.056-0.024s-0.024-0.035-0.024-0.056v-0.064c-0.093,0.056-0.187,0.1-0.279,0.13
		c-0.094,0.031-0.188,0.046-0.284,0.046c-0.083,0-0.166-0.01-0.248-0.028c-0.083-0.019-0.157-0.053-0.222-0.104
		c-0.065-0.05-0.119-0.119-0.16-0.204c-0.042-0.085-0.062-0.196-0.062-0.332v-0.016c0-0.115,0.019-0.215,0.055-0.3
		c0.035-0.085,0.093-0.157,0.172-0.216c0.078-0.059,0.18-0.103,0.304-0.132s0.272-0.044,0.446-0.044h0.252v-0.177
		c0-0.132-0.029-0.219-0.086-0.262c-0.058-0.043-0.146-0.064-0.267-0.064c-0.128,0-0.252,0.003-0.372,0.01
		c-0.12,0.006-0.213,0.014-0.279,0.022h-0.021c-0.021,0-0.038-0.004-0.052-0.012c-0.014-0.008-0.021-0.026-0.021-0.056v-0.253
		c0-0.045,0.025-0.073,0.076-0.083c0.08-0.016,0.177-0.03,0.29-0.043s0.239-0.02,0.378-0.02c0.285,0,0.504,0.063,0.654,0.188
		c0.15,0.125,0.226,0.317,0.226,0.576V38.879z M189.22,37.967h-0.254c-0.091,0-0.165,0.007-0.223,0.022
		c-0.059,0.015-0.104,0.036-0.138,0.064c-0.033,0.028-0.056,0.063-0.068,0.106c-0.012,0.042-0.018,0.092-0.018,0.148v0.016
		c0,0.099,0.022,0.165,0.068,0.198s0.119,0.05,0.221,0.05c0.073,0,0.145-0.01,0.216-0.032s0.136-0.048,0.195-0.08V37.967z"/>
	<path fill="#053F5F" d="M192.056,38.779c0,0.03-0.007,0.052-0.02,0.066c-0.014,0.015-0.043,0.028-0.088,0.042
		c-0.126,0.032-0.259,0.057-0.4,0.076s-0.276,0.028-0.404,0.028c-0.322,0-0.562-0.089-0.72-0.266s-0.236-0.423-0.236-0.738v-0.308
		c0-0.315,0.079-0.561,0.236-0.738s0.397-0.266,0.72-0.266c0.048,0,0.105,0.002,0.172,0.006c0.067,0.004,0.138,0.011,0.212,0.022
		v-0.708c0-0.021,0.009-0.04,0.024-0.056s0.035-0.024,0.056-0.024h0.368c0.021,0,0.04,0.008,0.057,0.024
		c0.016,0.016,0.023,0.035,0.023,0.056V38.779z M191.527,37.139c-0.056-0.008-0.121-0.014-0.197-0.02s-0.139-0.008-0.187-0.008
		c-0.085,0-0.155,0.015-0.212,0.044c-0.056,0.029-0.1,0.069-0.132,0.119c-0.032,0.051-0.054,0.11-0.066,0.179
		c-0.012,0.069-0.018,0.145-0.018,0.227v0.307c0,0.082,0.006,0.158,0.018,0.227c0.013,0.069,0.034,0.128,0.066,0.179
		c0.032,0.05,0.076,0.09,0.132,0.119c0.057,0.029,0.127,0.044,0.212,0.044c0.072,0,0.145-0.003,0.218-0.008
		c0.074-0.005,0.129-0.012,0.166-0.02V37.139z"/>
	<path fill="#053F5F" d="M193.127,36.323c0,0.021-0.008,0.04-0.023,0.056s-0.035,0.024-0.056,0.024h-0.389
		c-0.021,0-0.04-0.008-0.058-0.024s-0.026-0.035-0.026-0.056v-0.352c0-0.021,0.009-0.04,0.026-0.056s0.036-0.024,0.058-0.024h0.389
		c0.021,0,0.04,0.008,0.056,0.024s0.023,0.035,0.023,0.056V36.323z M193.115,38.875c0,0.021-0.008,0.041-0.023,0.058
		c-0.017,0.017-0.035,0.026-0.057,0.026h-0.368c-0.021,0-0.04-0.009-0.056-0.026c-0.016-0.018-0.023-0.037-0.023-0.058v-2.092
		c0-0.021,0.008-0.04,0.023-0.056s0.035-0.024,0.056-0.024h0.368c0.021,0,0.04,0.008,0.057,0.024
		c0.016,0.016,0.023,0.035,0.023,0.056V38.875z"/>
	<path fill="#053F5F" d="M195.516,37.987c0,0.315-0.079,0.561-0.236,0.738s-0.397,0.266-0.72,0.266
		c-0.048,0-0.105-0.002-0.172-0.006s-0.138-0.011-0.212-0.022v0.708c0,0.021-0.008,0.04-0.024,0.056
		c-0.016,0.016-0.034,0.024-0.056,0.024h-0.368c-0.021,0-0.04-0.008-0.056-0.024c-0.017-0.016-0.024-0.035-0.024-0.056v-2.784
		c0-0.029,0.007-0.052,0.021-0.066c0.013-0.015,0.042-0.028,0.088-0.042c0.125-0.032,0.259-0.057,0.399-0.076
		c0.142-0.019,0.276-0.028,0.404-0.028c0.322,0,0.562,0.089,0.72,0.266s0.236,0.423,0.236,0.738V37.987z M194.987,37.68
		c0-0.082-0.006-0.158-0.018-0.227s-0.034-0.128-0.066-0.179c-0.031-0.05-0.075-0.09-0.132-0.119
		c-0.056-0.029-0.127-0.044-0.212-0.044c-0.072,0-0.145,0.003-0.218,0.008s-0.129,0.012-0.166,0.02v1.389
		c0.056,0.008,0.122,0.014,0.198,0.02c0.075,0.005,0.138,0.008,0.186,0.008c0.085,0,0.156-0.015,0.212-0.044
		c0.057-0.029,0.101-0.069,0.132-0.119c0.032-0.051,0.055-0.11,0.066-0.179s0.018-0.145,0.018-0.227V37.68z"/>
	<path fill="#053F5F" d="M196.507,36.323c0,0.021-0.008,0.04-0.023,0.056s-0.035,0.024-0.056,0.024h-0.389
		c-0.021,0-0.04-0.008-0.058-0.024s-0.026-0.035-0.026-0.056v-0.352c0-0.021,0.009-0.04,0.026-0.056s0.036-0.024,0.058-0.024h0.389
		c0.021,0,0.04,0.008,0.056,0.024s0.023,0.035,0.023,0.056V36.323z M196.495,38.875c0,0.021-0.008,0.041-0.023,0.058
		c-0.017,0.017-0.035,0.026-0.057,0.026h-0.368c-0.021,0-0.04-0.009-0.056-0.026c-0.016-0.018-0.023-0.037-0.023-0.058v-2.092
		c0-0.021,0.008-0.04,0.023-0.056s0.035-0.024,0.056-0.024h0.368c0.021,0,0.04,0.008,0.057,0.024
		c0.016,0.016,0.023,0.035,0.023,0.056V38.875z"/>
	<path fill="#053F5F" d="M198.544,38.368c0,0.088-0.017,0.17-0.049,0.246c-0.031,0.076-0.08,0.142-0.146,0.198
		c-0.065,0.056-0.147,0.1-0.246,0.131c-0.099,0.032-0.213,0.048-0.344,0.048c-0.04,0-0.089-0.001-0.146-0.004
		c-0.057-0.002-0.119-0.007-0.186-0.014s-0.134-0.015-0.2-0.024s-0.128-0.022-0.184-0.039c-0.051-0.013-0.076-0.044-0.076-0.093
		v-0.242c0-0.016,0.006-0.031,0.018-0.044c0.013-0.013,0.029-0.02,0.05-0.02h0.017c0.048,0.006,0.104,0.011,0.17,0.016
		s0.13,0.01,0.194,0.014c0.063,0.004,0.124,0.007,0.18,0.01c0.056,0.003,0.099,0.004,0.128,0.004c0.062,0,0.11-0.005,0.147-0.014
		c0.038-0.009,0.066-0.022,0.087-0.04c0.02-0.017,0.033-0.038,0.04-0.062c0.006-0.024,0.01-0.049,0.01-0.076
		c0-0.037-0.014-0.07-0.04-0.1c-0.027-0.029-0.072-0.064-0.136-0.104l-0.549-0.335c-0.099-0.062-0.179-0.139-0.241-0.234
		c-0.063-0.094-0.095-0.2-0.095-0.317c0-0.399,0.254-0.599,0.761-0.599c0.079,0,0.152,0.002,0.218,0.006s0.126,0.01,0.182,0.018
		c0.057,0.008,0.109,0.017,0.16,0.026c0.051,0.009,0.102,0.02,0.152,0.03c0.048,0.013,0.071,0.044,0.071,0.093v0.234
		c0,0.051-0.021,0.077-0.063,0.077h-0.017c-0.029-0.003-0.069-0.007-0.119-0.014c-0.051-0.007-0.107-0.012-0.168-0.016
		c-0.062-0.004-0.125-0.008-0.19-0.012c-0.065-0.004-0.126-0.006-0.182-0.006c-0.097,0-0.166,0.013-0.21,0.038
		s-0.066,0.068-0.066,0.13c0,0.032,0.014,0.06,0.042,0.083s0.067,0.051,0.118,0.08l0.523,0.319c0.083,0.05,0.149,0.101,0.2,0.151
		c0.051,0.051,0.09,0.102,0.118,0.152c0.028,0.051,0.046,0.101,0.054,0.152C198.54,38.267,198.544,38.318,198.544,38.368z"/>
	<path fill="#053F5F" d="M200.399,38.905c-0.011,0.015-0.033,0.026-0.067,0.034c-0.046,0.013-0.112,0.025-0.2,0.036
		s-0.193,0.016-0.316,0.016c-0.131,0-0.251-0.02-0.361-0.06c-0.111-0.04-0.207-0.101-0.288-0.182
		c-0.082-0.082-0.146-0.183-0.192-0.304c-0.047-0.121-0.07-0.263-0.07-0.426v-0.372c0-0.163,0.023-0.305,0.07-0.426
		c0.047-0.122,0.11-0.223,0.192-0.304c0.081-0.082,0.177-0.142,0.288-0.182c0.11-0.04,0.23-0.06,0.361-0.06
		c0.123,0,0.229,0.005,0.316,0.016s0.154,0.023,0.2,0.036c0.034,0.008,0.057,0.02,0.067,0.034c0.011,0.015,0.017,0.038,0.017,0.07
		v0.26c0,0.021-0.007,0.037-0.021,0.046c-0.014,0.009-0.03,0.014-0.052,0.014h-0.012c-0.04-0.005-0.078-0.01-0.112-0.014
		c-0.035-0.004-0.07-0.007-0.108-0.008c-0.037-0.001-0.08-0.002-0.128-0.004s-0.104-0.002-0.168-0.002
		c-0.048,0-0.095,0.008-0.14,0.024c-0.046,0.016-0.086,0.043-0.122,0.082s-0.065,0.092-0.088,0.16
		c-0.022,0.068-0.034,0.154-0.034,0.258v0.372c0,0.104,0.012,0.19,0.034,0.258c0.022,0.068,0.052,0.122,0.088,0.16
		s0.076,0.066,0.122,0.082c0.045,0.016,0.092,0.024,0.14,0.024c0.064,0,0.12,0,0.168-0.002s0.091-0.002,0.128-0.004
		c0.038-0.001,0.073-0.004,0.108-0.008c0.034-0.004,0.072-0.008,0.112-0.014h0.012c0.021,0,0.038,0.004,0.052,0.014
		c0.014,0.01,0.021,0.025,0.021,0.046v0.26C200.416,38.867,200.41,38.89,200.399,38.905z"/>
	<path fill="#053F5F" d="M201.407,36.323c0,0.021-0.008,0.04-0.023,0.056s-0.035,0.024-0.056,0.024h-0.389
		c-0.021,0-0.04-0.008-0.058-0.024s-0.026-0.035-0.026-0.056v-0.352c0-0.021,0.009-0.04,0.026-0.056s0.036-0.024,0.058-0.024h0.389
		c0.021,0,0.04,0.008,0.056,0.024s0.023,0.035,0.023,0.056V36.323z M201.396,38.875c0,0.021-0.008,0.041-0.023,0.058
		c-0.017,0.017-0.035,0.026-0.057,0.026h-0.368c-0.021,0-0.04-0.009-0.056-0.026c-0.016-0.018-0.023-0.037-0.023-0.058v-2.092
		c0-0.021,0.008-0.04,0.023-0.056s0.035-0.024,0.056-0.024h0.368c0.021,0,0.04,0.008,0.057,0.024
		c0.016,0.016,0.023,0.035,0.023,0.056V38.875z"/>
	<path fill="#053F5F" d="M203.752,38.933c-0.016,0.017-0.035,0.026-0.056,0.026h-0.368c-0.021,0-0.04-0.009-0.057-0.026
		c-0.016-0.018-0.023-0.037-0.023-0.058v-1.304c0-0.088-0.004-0.161-0.01-0.218c-0.007-0.057-0.021-0.103-0.044-0.136
		c-0.023-0.033-0.057-0.057-0.103-0.072c-0.045-0.015-0.106-0.022-0.184-0.022c-0.069,0-0.141,0.013-0.214,0.038
		c-0.074,0.025-0.153,0.061-0.238,0.106v1.608c0,0.021-0.008,0.041-0.024,0.058c-0.016,0.017-0.034,0.026-0.056,0.026h-0.368
		c-0.021,0-0.04-0.009-0.056-0.026c-0.017-0.018-0.024-0.037-0.024-0.058v-2.092c0-0.021,0.008-0.04,0.024-0.056
		c0.016-0.016,0.034-0.024,0.056-0.024h0.349c0.021,0,0.039,0.008,0.056,0.024c0.016,0.016,0.023,0.035,0.023,0.056v0.084
		c0.059-0.038,0.113-0.068,0.162-0.092c0.05-0.024,0.1-0.043,0.15-0.058s0.103-0.025,0.156-0.032c0.053-0.007,0.113-0.01,0.18-0.01
		c0.144,0,0.262,0.023,0.352,0.068c0.091,0.045,0.161,0.108,0.21,0.188c0.05,0.08,0.084,0.174,0.103,0.284s0.028,0.228,0.028,0.356
		v1.304C203.776,38.896,203.768,38.916,203.752,38.933z"/>
	<path fill="#053F5F" d="M206.26,36.979c0,0.029-0.004,0.049-0.014,0.058s-0.026,0.019-0.05,0.03l-0.132,0.052
		c0.031,0.045,0.057,0.093,0.073,0.142c0.018,0.05,0.026,0.109,0.026,0.178v0.028c0,0.251-0.082,0.435-0.246,0.552
		s-0.397,0.176-0.702,0.176c-0.106,0-0.195-0.007-0.268-0.022s-0.128-0.03-0.168-0.046c-0.046,0.029-0.068,0.064-0.068,0.104
		s0.012,0.069,0.034,0.088c0.022,0.019,0.057,0.034,0.102,0.044l0.473,0.112c0.136,0.032,0.259,0.063,0.37,0.094
		c0.11,0.031,0.204,0.069,0.281,0.114c0.078,0.045,0.138,0.102,0.181,0.17c0.042,0.068,0.063,0.155,0.063,0.262v0.028
		c0,0.205-0.078,0.361-0.233,0.468c-0.156,0.107-0.405,0.16-0.746,0.16c-0.325,0-0.572-0.058-0.74-0.174
		c-0.168-0.116-0.252-0.28-0.252-0.49v-0.036c0-0.083,0.018-0.162,0.054-0.238s0.086-0.144,0.15-0.202
		c-0.056-0.042-0.101-0.097-0.132-0.162c-0.032-0.065-0.048-0.134-0.048-0.206v-0.004c0-0.061,0.013-0.121,0.04-0.18
		c0.026-0.059,0.066-0.107,0.119-0.144c-0.061-0.062-0.104-0.129-0.128-0.204c-0.023-0.075-0.036-0.163-0.036-0.264v-0.028
		c0-0.099,0.018-0.192,0.053-0.282c0.034-0.089,0.09-0.168,0.166-0.236s0.174-0.121,0.294-0.16c0.12-0.039,0.267-0.058,0.439-0.058
		h0.937c0.029,0,0.055,0.011,0.076,0.032c0.021,0.021,0.031,0.047,0.031,0.076V36.979z M205.688,39.115
		c0-0.021-0.005-0.041-0.015-0.06c-0.009-0.019-0.03-0.038-0.063-0.056s-0.082-0.038-0.145-0.058s-0.146-0.042-0.25-0.066
		l-0.355-0.084c-0.029,0.042-0.054,0.082-0.072,0.118c-0.019,0.036-0.028,0.09-0.028,0.162v0.036c0,0.04,0.008,0.077,0.022,0.11
		c0.015,0.034,0.04,0.062,0.076,0.084c0.036,0.023,0.084,0.04,0.146,0.052c0.062,0.012,0.139,0.018,0.232,0.018
		c0.096,0,0.173-0.005,0.231-0.016s0.105-0.025,0.139-0.044s0.055-0.042,0.065-0.07c0.011-0.028,0.017-0.061,0.017-0.098V39.115z
		 M205.645,37.447c0-0.048-0.007-0.092-0.019-0.134s-0.034-0.077-0.065-0.108c-0.032-0.031-0.076-0.055-0.133-0.072
		c-0.056-0.017-0.126-0.026-0.212-0.026c-0.085,0-0.155,0.009-0.212,0.026c-0.056,0.018-0.1,0.042-0.132,0.072
		s-0.055,0.066-0.068,0.108c-0.013,0.042-0.02,0.086-0.02,0.134v0.032c0,0.038,0.005,0.075,0.016,0.112
		c0.011,0.038,0.031,0.072,0.062,0.102c0.03,0.031,0.074,0.056,0.13,0.074s0.131,0.028,0.224,0.028c0.166,0,0.278-0.027,0.338-0.082
		c0.061-0.055,0.091-0.132,0.091-0.234V37.447z"/>
	<path fill="#053F5F" d="M209.418,37.915c0,0.066-0.026,0.1-0.08,0.1h-1.304v0.012c0,0.059,0.007,0.118,0.021,0.178
		c0.013,0.06,0.038,0.115,0.073,0.164c0.036,0.049,0.086,0.089,0.148,0.12c0.062,0.031,0.142,0.046,0.238,0.046
		c0.146,0,0.284-0.005,0.414-0.014c0.129-0.009,0.236-0.018,0.321-0.026h0.013c0.021,0,0.038,0.004,0.052,0.014
		c0.014,0.01,0.02,0.025,0.02,0.046v0.264c0,0.032-0.004,0.056-0.014,0.072s-0.032,0.026-0.07,0.032
		c-0.063,0.014-0.124,0.024-0.18,0.032c-0.056,0.008-0.112,0.015-0.17,0.02s-0.12,0.009-0.188,0.012
		c-0.067,0.003-0.146,0.004-0.237,0.004c-0.102,0-0.209-0.016-0.322-0.046c-0.113-0.03-0.218-0.084-0.312-0.16
		c-0.096-0.076-0.174-0.179-0.236-0.308s-0.093-0.292-0.093-0.49v-0.296c0-0.155,0.021-0.294,0.063-0.42s0.104-0.232,0.186-0.32
		c0.081-0.088,0.182-0.156,0.302-0.204c0.119-0.048,0.255-0.072,0.407-0.072c0.154,0,0.29,0.025,0.409,0.074
		c0.118,0.049,0.217,0.119,0.297,0.21s0.141,0.198,0.182,0.322c0.041,0.124,0.062,0.261,0.062,0.41V37.915z M208.891,37.623
		c0-0.157-0.039-0.279-0.117-0.364c-0.077-0.085-0.18-0.128-0.305-0.128c-0.126,0-0.229,0.042-0.31,0.126
		c-0.081,0.084-0.121,0.206-0.121,0.366v0.016h0.853V37.623z"/>
	<path fill="#053F5F" d="M210.4,38.933c-0.015,0.017-0.033,0.026-0.054,0.026h-0.372c-0.021,0-0.04-0.009-0.057-0.026
		c-0.016-0.018-0.023-0.037-0.023-0.058v-2.88c0-0.021,0.008-0.04,0.023-0.056c0.017-0.016,0.035-0.024,0.057-0.024h0.372
		c0.021,0,0.039,0.008,0.054,0.024s0.021,0.035,0.021,0.056v2.88C210.422,38.896,210.415,38.916,210.4,38.933z"/>
	<path fill="#053F5F" d="M211.514,36.323c0,0.021-0.008,0.04-0.023,0.056s-0.035,0.024-0.056,0.024h-0.389
		c-0.021,0-0.04-0.008-0.058-0.024s-0.026-0.035-0.026-0.056v-0.352c0-0.021,0.009-0.04,0.026-0.056s0.036-0.024,0.058-0.024h0.389
		c0.021,0,0.04,0.008,0.056,0.024s0.023,0.035,0.023,0.056V36.323z M211.502,38.875c0,0.021-0.008,0.041-0.023,0.058
		c-0.017,0.017-0.035,0.026-0.057,0.026h-0.368c-0.021,0-0.04-0.009-0.056-0.026c-0.016-0.018-0.023-0.037-0.023-0.058v-2.092
		c0-0.021,0.008-0.04,0.023-0.056s0.035-0.024,0.056-0.024h0.368c0.021,0,0.04,0.008,0.057,0.024
		c0.016,0.016,0.023,0.035,0.023,0.056V38.875z"/>
	<path fill="#053F5F" d="M213.215,38.963c-0.049,0.008-0.095,0.015-0.139,0.02s-0.089,0.008-0.134,0.008
		c-0.111,0-0.208-0.008-0.289-0.024c-0.08-0.016-0.146-0.046-0.196-0.092c-0.05-0.045-0.087-0.11-0.111-0.194
		c-0.023-0.084-0.035-0.193-0.035-0.326v-1.256l-0.376-0.056c-0.021-0.005-0.04-0.015-0.057-0.028
		c-0.016-0.014-0.023-0.031-0.023-0.052v-0.18c0-0.021,0.008-0.04,0.023-0.056c0.017-0.016,0.035-0.024,0.057-0.024h0.376v-0.328
		c0-0.021,0.008-0.039,0.023-0.052c0.017-0.013,0.034-0.022,0.056-0.028l0.369-0.064h0.017c0.042,0,0.063,0.02,0.063,0.06v0.412
		h0.359c0.021,0,0.04,0.008,0.057,0.024c0.016,0.016,0.023,0.035,0.023,0.056v0.236c0,0.021-0.008,0.04-0.023,0.056
		c-0.017,0.016-0.035,0.024-0.057,0.024h-0.359v1.256c0,0.051,0.001,0.091,0.004,0.12c0.002,0.029,0.009,0.052,0.02,0.068
		s0.026,0.026,0.046,0.03c0.021,0.004,0.049,0.006,0.086,0.006h0.212c0.057,0,0.084,0.02,0.084,0.06v0.252
		C213.29,38.931,213.265,38.955,213.215,38.963z"/>
	<path fill="#053F5F" d="M214.206,38.399c0,0.003-0.002,0.012-0.008,0.028l-0.348,0.84c-0.011,0.024-0.021,0.043-0.03,0.058
		c-0.009,0.015-0.024,0.022-0.046,0.022h-0.276c-0.039,0-0.06-0.019-0.06-0.056c0-0.011,0.001-0.019,0.004-0.024l0.244-0.84
		c0.016-0.05,0.043-0.076,0.08-0.076h0.384C214.188,38.351,214.206,38.367,214.206,38.399z"/>
	<path fill="#053F5F" d="M217.152,38.368c0,0.088-0.017,0.17-0.049,0.246c-0.031,0.076-0.08,0.142-0.146,0.198
		c-0.065,0.056-0.147,0.1-0.246,0.131c-0.099,0.032-0.213,0.048-0.344,0.048c-0.04,0-0.089-0.001-0.146-0.004
		c-0.057-0.002-0.119-0.007-0.186-0.014s-0.134-0.015-0.2-0.024s-0.128-0.022-0.184-0.039c-0.051-0.013-0.076-0.044-0.076-0.093
		v-0.242c0-0.016,0.006-0.031,0.018-0.044c0.013-0.013,0.029-0.02,0.05-0.02h0.017c0.048,0.006,0.104,0.011,0.17,0.016
		s0.13,0.01,0.194,0.014c0.063,0.004,0.124,0.007,0.18,0.01c0.056,0.003,0.099,0.004,0.128,0.004c0.062,0,0.11-0.005,0.147-0.014
		c0.038-0.009,0.066-0.022,0.087-0.04c0.02-0.017,0.033-0.038,0.04-0.062c0.006-0.024,0.01-0.049,0.01-0.076
		c0-0.037-0.014-0.07-0.04-0.1c-0.027-0.029-0.072-0.064-0.136-0.104l-0.549-0.335c-0.099-0.062-0.179-0.139-0.241-0.234
		c-0.063-0.094-0.095-0.2-0.095-0.317c0-0.399,0.254-0.599,0.761-0.599c0.079,0,0.152,0.002,0.218,0.006s0.126,0.01,0.182,0.018
		c0.057,0.008,0.109,0.017,0.16,0.026c0.051,0.009,0.102,0.02,0.152,0.03c0.048,0.013,0.071,0.044,0.071,0.093v0.234
		c0,0.051-0.021,0.077-0.063,0.077h-0.017c-0.029-0.003-0.069-0.007-0.119-0.014c-0.051-0.007-0.107-0.012-0.168-0.016
		c-0.062-0.004-0.125-0.008-0.19-0.012c-0.065-0.004-0.126-0.006-0.182-0.006c-0.097,0-0.166,0.013-0.21,0.038
		s-0.066,0.068-0.066,0.13c0,0.032,0.014,0.06,0.042,0.083s0.067,0.051,0.118,0.08l0.523,0.319c0.083,0.05,0.149,0.101,0.2,0.151
		c0.051,0.051,0.09,0.102,0.118,0.152c0.028,0.051,0.046,0.101,0.054,0.152C217.148,38.267,217.152,38.318,217.152,38.368z"/>
	<path fill="#053F5F" d="M219.432,37.915c0,0.066-0.026,0.1-0.08,0.1h-1.304v0.012c0,0.059,0.007,0.118,0.021,0.178
		c0.013,0.06,0.038,0.115,0.073,0.164c0.036,0.049,0.086,0.089,0.148,0.12c0.062,0.031,0.142,0.046,0.238,0.046
		c0.146,0,0.284-0.005,0.414-0.014c0.129-0.009,0.236-0.018,0.321-0.026h0.013c0.021,0,0.038,0.004,0.052,0.014
		c0.014,0.01,0.02,0.025,0.02,0.046v0.264c0,0.032-0.004,0.056-0.014,0.072s-0.032,0.026-0.07,0.032
		c-0.063,0.014-0.124,0.024-0.18,0.032c-0.056,0.008-0.112,0.015-0.17,0.02s-0.12,0.009-0.188,0.012
		c-0.067,0.003-0.146,0.004-0.237,0.004c-0.102,0-0.209-0.016-0.322-0.046c-0.113-0.03-0.218-0.084-0.312-0.16
		c-0.096-0.076-0.174-0.179-0.236-0.308s-0.093-0.292-0.093-0.49v-0.296c0-0.155,0.021-0.294,0.063-0.42s0.104-0.232,0.186-0.32
		c0.081-0.088,0.182-0.156,0.302-0.204c0.119-0.048,0.255-0.072,0.407-0.072c0.154,0,0.29,0.025,0.409,0.074
		c0.118,0.049,0.217,0.119,0.297,0.21s0.141,0.198,0.182,0.322c0.041,0.124,0.062,0.261,0.062,0.41V37.915z M218.904,37.623
		c0-0.157-0.039-0.279-0.117-0.364c-0.077-0.085-0.18-0.128-0.305-0.128c-0.126,0-0.229,0.042-0.31,0.126
		c-0.081,0.084-0.121,0.206-0.121,0.366v0.016h0.853V37.623z"/>
	<path fill="#053F5F" d="M221.676,38.779c0,0.03-0.007,0.052-0.02,0.066c-0.014,0.015-0.043,0.028-0.088,0.042
		c-0.126,0.032-0.259,0.057-0.4,0.076s-0.276,0.028-0.404,0.028c-0.322,0-0.562-0.089-0.72-0.266s-0.236-0.423-0.236-0.738v-0.308
		c0-0.315,0.079-0.561,0.236-0.738s0.397-0.266,0.72-0.266c0.048,0,0.105,0.002,0.172,0.006c0.067,0.004,0.138,0.011,0.212,0.022
		v-0.708c0-0.021,0.009-0.04,0.024-0.056s0.035-0.024,0.056-0.024h0.368c0.021,0,0.04,0.008,0.057,0.024
		c0.016,0.016,0.023,0.035,0.023,0.056V38.779z M221.147,37.139c-0.056-0.008-0.121-0.014-0.197-0.02s-0.139-0.008-0.187-0.008
		c-0.085,0-0.155,0.015-0.212,0.044c-0.056,0.029-0.1,0.069-0.132,0.119c-0.032,0.051-0.054,0.11-0.066,0.179
		c-0.012,0.069-0.018,0.145-0.018,0.227v0.307c0,0.082,0.006,0.158,0.018,0.227c0.013,0.069,0.034,0.128,0.066,0.179
		c0.032,0.05,0.076,0.09,0.132,0.119c0.057,0.029,0.127,0.044,0.212,0.044c0.072,0,0.145-0.003,0.218-0.008
		c0.074-0.005,0.129-0.012,0.166-0.02V37.139z"/>
</g>
<g>
	<g>
		<circle fill="#FFFFFF" cx="252.183" cy="106.078" r="24.389"/>
	</g>
	<g>
		<path fill="#154D61" d="M272.613,82.653c-12.936-11.281-32.57-9.943-43.854,2.994c-11.283,12.934-9.944,32.57,2.992,43.853
			c12.054,10.516,29.922,10.062,41.432-0.514l8.674,7.564l-2.273,2.607l30.795,26.861l2.273-2.607l4.549-5.213l2.273-2.607
			L288.68,128.73l-2.274,2.607l-8.675-7.566C286.647,110.932,284.669,93.169,272.613,82.653z M236.15,124.457
			c-10.15-8.854-11.201-24.261-2.349-34.411c8.855-10.15,24.262-11.202,34.413-2.348c10.15,8.855,11.201,24.262,2.347,34.411
			C261.709,132.26,246.301,133.311,236.15,124.457z"/>
	</g>
</g>
<g>
	<path fill="#053F5F" d="M184.639,107.239l-14.432-4.689l-0.187-33.391c-3.245,0.069-6.698,0.553-9.863,1.58
		c-8.262,2.685-14.983,8.427-18.927,16.166c-3.817,7.49-4.072,17.58-1.686,25.607c3.458,9.888,10.57,16.821,20.612,20.085
		c3.27,1.061,6.653,1.6,10.056,1.6c13.848,0,26.062-8.678,30.654-21.685L184.639,107.239z"/>
</g>
<g>
	<path fill="#FFFFFF" d="M193.182,75.049l-18.431,25.369l29.822,9.689C208.494,96.969,204.077,83.371,193.182,75.049z"/>
</g>
<g>
	<path fill="#FFFFFF" d="M172.771,96.653l17.594-24.217c-5.396-3.744-11.027-5.575-17.594-5.715V96.653z"/>
</g>
<g>
	<g>
		<circle fill="#62BFBE" cx="50.908" cy="49.318" r="24.418"/>
	</g>
	<g>
		<g>
			<path fill="#FFFFFF" d="M66.465,56.62c-0.001,0.645,0.07,1.246-0.242,1.773l-9.925-10.438l9.582-8.041
				c0.381,0.566,0.612,1.234,0.611,1.955L66.465,56.62z"/>
		</g>
		<g>
			<path fill="#FFFFFF" d="M51.089,49.851l14.024-11.449c-0.575-0.296-1.22-0.477-1.917-0.477l-24.167-0.039
				c-0.7-0.008-1.346,0.173-1.919,0.469L51.089,49.851z"/>
		</g>
		<g>
			<path fill="#FFFFFF" d="M54.996,49.166l-3.247,2.65c-0.19,0.154-0.427,0.233-0.663,0.233c-0.237-0.002-0.472-0.08-0.663-0.234
				l-3.237-2.664L36.867,59.93c0.615,0.363,1.341,0.587,2.124,0.587l24.166,0.04c0.782,0.002,1.507-0.218,2.125-0.573L54.996,49.166
				z"/>
		</g>
		<g>
			<path fill="#FFFFFF" d="M35.626,39.644c-0.394,0.587-0.63,1.266-0.631,2.007l-0.027,15.084c0.001,0.662,0.196,1.275,0.513,1.814
				l10.19-10.639L35.626,39.644z"/>
		</g>
	</g>
</g>
<g>
	<g>
		<circle fill="#62BFBE" cx="291.211" cy="195.375" r="24.157"/>
	</g>
	<g>
		<g>
			<circle fill="#FFFFFF" cx="282.811" cy="203.799" r="3.486"/>
		</g>
		<g>
			<path fill="#FFFFFF" d="M279.328,195.014c3.269,0,6.338,1.277,8.646,3.594c2.311,2.322,3.582,5.412,3.582,8.705h5.031
				c0-9.557-7.741-17.332-17.259-17.332V195.014z"/>
		</g>
		<g>
			<path fill="#FFFFFF" d="M279.335,186.092c11.64,0,21.111,9.521,21.111,21.223h5.03c0-14.479-11.727-26.256-26.142-26.256V186.092
				z"/>
		</g>
	</g>
</g>
<g>
	<circle fill="#053F5F" cx="44.745" cy="195.375" r="24.157"/>
</g>
<g>
	<g>
		<circle fill="#053F5F" cx="288.163" cy="49.104" r="24.512"/>
	</g>
	<g>
		<path fill="#FFFFFF" d="M291.328,40.649c1.415,0.885,2.407,2.388,2.587,4.129c0.576,0.271,1.218,0.427,1.898,0.427
			c2.478,0,4.485-2.009,4.485-4.489c0-2.478-2.008-4.488-4.485-4.488C293.355,36.231,291.365,38.201,291.328,40.649 M288.387,49.837
			c2.479,0,4.49-2.01,4.49-4.488c0-2.477-2.012-4.486-4.49-4.486c-2.477,0-4.486,2.01-4.486,4.486
			C283.9,47.827,285.91,49.837,288.387,49.837 M290.29,50.144h-3.808c-3.168,0-5.744,2.577-5.744,5.744v4.659l0.01,0.072
			l0.322,0.101c3.022,0.945,5.65,1.258,7.812,1.258c4.223,0,6.671-1.201,6.822-1.28l0.299-0.15h0.032v-4.659
			C296.036,52.721,293.459,50.144,290.29,50.144 M297.715,45.509h-3.777c-0.043,1.514-0.687,2.874-1.707,3.854
			c2.817,0.838,4.877,3.449,4.877,6.534v1.436c3.73-0.138,5.881-1.195,6.023-1.268l0.299-0.152h0.033v-4.656
			C303.463,48.087,300.886,45.509,297.715,45.509 M280.514,45.205c0.876,0,1.693-0.256,2.387-0.692
			c0.219-1.435,0.988-2.689,2.087-3.543c0.005-0.084,0.013-0.166,0.013-0.25c0-2.479-2.01-4.488-4.486-4.488
			c-2.479,0-4.49,2.009-4.49,4.488C276.023,43.196,278.034,45.205,280.514,45.205 M284.544,49.362
			c-1.015-0.974-1.66-2.329-1.706-3.83c-0.141-0.01-0.278-0.023-0.422-0.023h-3.809c-3.168,0-5.746,2.578-5.746,5.747v4.656
			l0.012,0.073l0.32,0.103c2.428,0.759,4.594,1.106,6.473,1.214v-1.405C279.666,52.812,281.727,50.202,284.544,49.362"/>
	</g>
</g>
<g>
	<g id="Path_1_">
		<path fill="#FEFDFD" d="M121.981,118.282c0,7.339-5.911,13.294-13.196,13.294H67.959c-7.284,0-13.192-5.955-13.192-13.294
			c0-6.636,4.814-12.125,11.121-13.128c-0.083-0.469-0.126-0.947-0.126-1.438c0-4.652,3.742-8.424,8.363-8.424
			c2.059,0,3.947,0.751,5.401,2c2.595-5.896,5.925-11.27,15.261-11.27c11.323,0,16.688,8.793,16.688,18.078
			c0,0.388-0.017,0.776-0.042,1.153C117.452,106.487,121.981,111.851,121.981,118.282z"/>
	</g>
	<g>
		<g>
			<path fill="#62BFBE" d="M102.01,111.259h-1.268c-0.343,0-0.747-0.309-0.88-0.676c-0.118-0.344-0.26-0.68-0.419-1.006
				c-0.168-0.354-0.107-0.855,0.136-1.1l0.907-0.901c0.629-0.634,0.629-1.662,0-2.294l-1.468-1.471
				c-0.307-0.305-0.716-0.47-1.146-0.47c-0.436,0-0.841,0.165-1.152,0.47l-0.901,0.904c-0.145,0.146-0.386,0.229-0.646,0.229
				c-0.161,0-0.317-0.023-0.446-0.093c-0.329-0.153-0.669-0.295-1.012-0.421c-0.368-0.13-0.679-0.531-0.679-0.875v-1.268
				c0-0.896-0.73-1.627-1.625-1.627h-2.071c-0.896,0-1.626,0.731-1.626,1.627v1.268c0,0.344-0.309,0.745-0.678,0.875
				c-0.343,0.126-0.683,0.26-1.008,0.421c-0.13,0.062-0.286,0.093-0.447,0.093c-0.261,0-0.503-0.082-0.647-0.229l-0.903-0.904
				c-0.308-0.305-0.717-0.47-1.147-0.47c-0.439,0-0.843,0.165-1.148,0.47l-1.472,1.471c-0.304,0.303-0.473,0.712-0.473,1.143
				c0,0.438,0.169,0.846,0.473,1.151l0.903,0.901c0.247,0.244,0.309,0.746,0.139,1.1c-0.159,0.326-0.301,0.662-0.42,1.006
				c-0.13,0.367-0.533,0.676-0.875,0.676h-1.271c-0.894,0-1.624,0.732-1.624,1.625v2.074c0,0.893,0.73,1.63,1.624,1.63h1.271
				c0.342,0,0.745,0.301,0.875,0.672c0.119,0.338,0.261,0.68,0.42,1.008c0.17,0.354,0.108,0.853-0.139,1.095l-0.903,0.904
				c-0.633,0.627-0.633,1.66,0,2.297l1.472,1.467c0.305,0.303,0.709,0.475,1.148,0.475c0.43,0,0.839-0.172,1.147-0.475l0.903-0.904
				c0.147-0.143,0.387-0.234,0.647-0.234c0.162,0,0.317,0.033,0.447,0.1c0.329,0.156,0.666,0.303,1.008,0.42
				c0.37,0.131,0.678,0.531,0.678,0.875v1.27c0,0.893,0.731,1.621,1.626,1.621h2.071c0.896,0,1.625-0.729,1.625-1.621v-1.27
				c0-0.344,0.311-0.744,0.679-0.875c0.343-0.117,0.683-0.264,1.01-0.42c0.126-0.062,0.286-0.1,0.445-0.1
				c0.262,0,0.502,0.092,0.647,0.234l0.901,0.904c0.311,0.303,0.716,0.475,1.152,0.475c0.434,0,0.839-0.172,1.146-0.475l1.468-1.467
				c0.629-0.631,0.629-1.67,0-2.297l-0.907-0.904c-0.243-0.242-0.304-0.742-0.132-1.095c0.157-0.326,0.298-0.67,0.422-1.008
				c0.127-0.371,0.531-0.672,0.875-0.672h1.268c0.896,0,1.623-0.738,1.623-1.63v-2.074
				C103.632,111.991,102.905,111.259,102.01,111.259z M95.132,113.923c0,2.628-2.135,4.755-4.759,4.755
				c-2.621,0-4.755-2.127-4.755-4.755c0-2.624,2.134-4.756,4.755-4.756C92.997,109.167,95.132,111.299,95.132,113.923z"/>
		</g>
	</g>
	<g>
		<g>
			<path fill="#62BFBE" d="M266.167,103.036h-1.524c-0.412,0-0.897-0.371-1.058-0.812c-0.142-0.412-0.312-0.816-0.504-1.208
				c-0.202-0.425-0.128-1.028,0.163-1.321l1.09-1.084c0.756-0.762,0.756-1.997,0-2.756l-1.764-1.768
				c-0.369-0.366-0.861-0.564-1.379-0.564c-0.523,0-1.01,0.198-1.384,0.564l-1.083,1.086c-0.174,0.177-0.463,0.275-0.775,0.275
				c-0.193,0-0.382-0.028-0.536-0.111c-0.396-0.185-0.804-0.354-1.216-0.506c-0.442-0.156-0.815-0.639-0.815-1.052v-1.523
				c0-1.076-0.878-1.955-1.953-1.955h-2.489c-1.076,0-1.954,0.879-1.954,1.955v1.523c0,0.413-0.371,0.896-0.815,1.052
				c-0.412,0.151-0.82,0.312-1.211,0.506c-0.156,0.074-0.344,0.111-0.537,0.111c-0.313,0-0.604-0.099-0.777-0.275l-1.086-1.086
				c-0.369-0.366-0.861-0.564-1.378-0.564c-0.527,0-1.013,0.198-1.38,0.564l-1.769,1.768c-0.365,0.363-0.569,0.855-0.569,1.373
				c0,0.525,0.204,1.016,0.569,1.383l1.085,1.084c0.297,0.293,0.371,0.896,0.166,1.321c-0.19,0.392-0.361,0.796-0.504,1.208
				c-0.156,0.441-0.641,0.812-1.052,0.812h-1.528c-1.073,0-1.951,0.881-1.951,1.953v2.492c0,1.073,0.878,1.959,1.951,1.959h1.528
				c0.411,0,0.896,0.363,1.052,0.808c0.143,0.407,0.313,0.817,0.504,1.212c0.205,0.426,0.131,1.025-0.166,1.316l-1.085,1.088
				c-0.761,0.752-0.761,1.994,0,2.759l1.769,1.764c0.367,0.363,0.853,0.57,1.38,0.57c0.517,0,1.009-0.207,1.378-0.57l1.086-1.088
				c0.176-0.172,0.465-0.281,0.777-0.281c0.194,0,0.381,0.039,0.537,0.119c0.395,0.188,0.799,0.365,1.211,0.506
				c0.444,0.156,0.815,0.639,0.815,1.051v1.525c0,1.072,0.878,1.949,1.954,1.949h2.489c1.077,0,1.953-0.877,1.953-1.949v-1.525
				c0-0.412,0.373-0.895,0.815-1.051c0.412-0.141,0.82-0.318,1.215-0.506c0.151-0.074,0.344-0.119,0.535-0.119
				c0.314,0,0.604,0.109,0.777,0.281l1.083,1.088c0.374,0.363,0.86,0.57,1.384,0.57c0.521,0,1.01-0.207,1.379-0.57l1.764-1.764
				c0.756-0.759,0.756-2.007,0-2.759l-1.09-1.088c-0.291-0.291-0.365-0.891-0.159-1.316c0.188-0.392,0.358-0.805,0.507-1.212
				c0.153-0.444,0.639-0.808,1.051-0.808h1.524c1.077,0,1.95-0.886,1.95-1.959v-2.492
				C268.117,103.917,267.243,103.036,266.167,103.036z M257.901,106.237c0,3.16-2.565,5.716-5.72,5.716
				c-3.149,0-5.715-2.556-5.715-5.716c0-3.152,2.565-5.715,5.715-5.715C255.336,100.522,257.901,103.085,257.901,106.237z"/>
		</g>
	</g>
</g>
<g>
	<path fill="#FFFFFF" d="M194.617,208.379c0,0.553,0.448,1,1,1h2.5c0.553,0,1-0.447,1-1v-2.129c0-0.553-0.447-1-1-1h-2.5
		c-0.552,0-1,0.447-1,1V208.379z"/>
</g>
<g>
	<path fill="#FFFFFF" d="M194.617,201.469c0,0.553,0.448,1,1,1h2.5c0.553,0,1-0.447,1-1v-2.129c0-0.553-0.447-1-1-1h-2.5
		c-0.552,0-1,0.447-1,1V201.469z"/>
</g>
<g>
	<path fill="#FFFFFF" d="M194.617,194.561c0,0.553,0.448,1,1,1h2.5c0.553,0,1-0.447,1-1v-2.129c0-0.553-0.447-1-1-1h-2.5
		c-0.552,0-1,0.447-1,1V194.561z"/>
</g>
<g>
	<path fill="#FFFFFF" d="M194.617,181.559c0,0.553,0.448,1,1,1h2.5c0.553,0,1-0.447,1-1v-2.129c0-0.553-0.447-1-1-1h-2.5
		c-0.552,0-1,0.447-1,1V181.559z"/>
</g>
<g>
	<path fill="#FEFDFD" d="M58.589,191.461l-0.014-3.982l-1.738-0.99l-12.131-6.904l-12.098,6.961l-1.736,1l0.009,3.941l0.029,11.91
		l10.354,5.896l1.775,1.01l1.711,0.971l0.033,0.021l3.476-2l10.358-5.961L58.589,191.461z M44.718,183.568l8.647,4.918l-8.626,4.963
		l-8.649-4.922L44.718,183.568z M34.383,201.398l-0.025-9.881l8.614,4.902L43,206.303L34.383,201.398z M46.508,206.312l-0.023-9.883
		l8.622-4.961l0.031,9.885L46.508,206.312z"/>
</g>
<g>
	<g>
		<path fill="#053F5F" d="M242.599,39.18c7.431,0,13.452-6.022,13.452-13.452s-6.021-13.453-13.452-13.453
			s-13.452,6.023-13.452,13.453S235.168,39.18,242.599,39.18z M242.599,14.377c6.269,0,11.351,5.081,11.351,11.351
			s-5.082,11.351-11.351,11.351s-11.351-5.081-11.351-11.351S236.33,14.377,242.599,14.377z"/>
	</g>
	<g>
		<polygon fill="#053F5F" points="246.803,19.842 236.713,25.728 246.803,31.612 		"/>
	</g>
</g>
<g>
	<g>
		<path fill="#053F5F" d="M40.218,85.011c-7.43,0-13.453,6.023-13.453,13.453s6.023,13.452,13.453,13.452
			c7.43,0,13.453-6.022,13.453-13.452S47.648,85.011,40.218,85.011z M40.218,109.814c-6.269,0-11.351-5.082-11.351-11.351
			c0-6.27,5.082-11.351,11.351-11.351s11.351,5.081,11.351,11.351C51.568,104.732,46.487,109.814,40.218,109.814z"/>
	</g>
	<g>
		<polygon fill="#053F5F" points="36.014,104.349 46.104,98.464 36.014,92.578 		"/>
	</g>
</g>
<g>
	<g>
		<path fill="#053F5F" d="M243.644,194.373c-7.431,0-13.453,6.023-13.453,13.453s6.022,13.453,13.453,13.453
			c7.43,0,13.452-6.023,13.452-13.453S251.073,194.373,243.644,194.373z M243.644,219.178c-6.269,0-11.351-5.082-11.351-11.352
			s5.082-11.35,11.351-11.35s11.351,5.08,11.351,11.35S249.912,219.178,243.644,219.178z"/>
	</g>
	<g>
		<polygon fill="#053F5F" points="237.758,212.029 249.529,212.029 243.644,201.941 		"/>
	</g>
</g>
<g>
	<g>
		<path fill="#053F5F" d="M93.636,194.826c-7.43,0-13.453,6.023-13.453,13.453s6.022,13.453,13.453,13.453
			c7.43,0,13.453-6.023,13.453-13.453S101.066,194.826,93.636,194.826z M93.636,219.631c-6.269,0-11.351-5.082-11.351-11.352
			c0-6.268,5.082-11.35,11.351-11.35s11.351,5.082,11.351,11.35C104.987,214.549,99.905,219.631,93.636,219.631z"/>
	</g>
	<g>
		<polygon fill="#053F5F" points="93.636,214.166 99.521,204.078 87.75,204.078 		"/>
	</g>
</g>
<g>
	<circle fill="#62BFBE" cx="88.655" cy="30.326" r="4.887"/>
</g>
<g>
	<circle fill="#053F5F" cx="46.104" cy="142.012" r="4.887"/>
</g>
<g>
	<circle fill="#62BFBE" cx="298.389" cy="93.39" r="4.887"/>
</g>
<g>
	<circle fill="#62BFBE" cx="252.556" cy="176.695" r="4.888"/>
</g>
<g>
	<circle fill="#053F5F" cx="82.863" cy="179.43" r="4.887"/>
</g>
<g>
	<circle fill="#053F5F" cx="316.083" cy="18.224" r="4.888"/>
</g>
<g>
	<circle fill="#053F5F" cx="20.707" cy="18.224" r="4.887"/>
</g>
<g>
	<circle fill="#62BFBE" cx="26.487" cy="150.486" r="9.75"/>
</g>
<g>
	<circle fill="#053F5F" cx="311.361" cy="113.921" r="9.75"/>
</g>
</svg>
